<svg width="180" height="53" viewBox="0 0 180 53" fill="none" xmlns="http://www.w3.org/2000/svg">
<path d="M179 46.9113C179 49.6825 176.709 51.9271 173.874 51.9271H6.13243C3.2995 51.9271 1 49.6825 1 46.9113V6.91177C1 4.14194 3.2995 1.8894 6.13243 1.8894H173.873C176.709 1.8894 178.999 4.14194 178.999 6.91177L179 46.9113Z" fill="white"/>
<path d="M173.333 1.94983C176.42 1.94983 178.932 4.39871 178.932 7.40821V46.4082C178.932 49.4177 176.42 51.8666 173.333 51.8666H6.66667C3.58 51.8666 1.06833 49.4177 1.06833 46.4082V7.40821C1.06833 4.39871 3.58 1.94983 6.66667 1.94983H173.333ZM173.333 0.908206H6.66667C3.00167 0.908206 0 3.83483 0 7.40821V46.4082C0 49.9816 3.00167 52.9082 6.66667 52.9082H173.333C176.998 52.9082 180 49.9816 180 46.4082V7.40821C180 3.83483 176.998 0.908206 173.333 0.908206Z" fill="#A6A6A6"/>
<path d="M40.1707 26.6273C40.132 22.4374 43.6893 20.399 43.852 20.3041C41.8373 17.4402 38.7147 17.0489 37.6173 17.0177C34.9947 16.7486 32.4507 18.5478 31.1147 18.5478C29.752 18.5478 27.6947 17.0437 25.4773 17.0879C22.624 17.1308 19.9547 18.7415 18.4907 21.2427C15.4693 26.3426 17.7227 33.8371 20.6173 37.9594C22.0653 39.9783 23.7573 42.2325 25.972 42.1532C28.1387 42.0661 28.948 40.8064 31.5627 40.8064C34.1533 40.8064 34.9133 42.1532 37.172 42.1025C39.4973 42.0661 40.9613 40.0745 42.3587 38.0374C44.032 35.7234 44.704 33.4445 44.7307 33.3275C44.676 33.3093 40.2147 31.6492 40.1707 26.6273Z" fill="black"/>
<path d="M35.904 14.3059C37.0693 12.885 37.8667 10.9519 37.6453 8.99023C35.9587 9.06303 33.8493 10.1277 32.6347 11.5174C31.56 12.742 30.6 14.7492 30.848 16.6368C32.7427 16.7746 34.688 15.7047 35.904 14.3059Z" fill="black"/>
<path d="M65.4 13.9198C65.4 15.4499 64.9294 16.6017 63.9894 17.3752C63.1187 18.0889 61.8814 18.4464 60.2787 18.4464C59.484 18.4464 58.804 18.4126 58.2347 18.345V9.98466C58.9773 9.86766 59.7773 9.80786 60.6413 9.80786C62.168 9.80786 63.3187 10.1316 64.0947 10.779C64.964 11.5109 65.4 12.5574 65.4 13.9198ZM63.9267 13.9575C63.9267 12.9656 63.6574 12.2051 63.1187 11.6747C62.58 11.1456 61.7934 10.8804 60.7574 10.8804C60.3174 10.8804 59.9427 10.909 59.632 10.9688V17.3245C59.804 17.3505 60.1187 17.3622 60.576 17.3622C61.6454 17.3622 62.4707 17.0723 63.052 16.4925C63.6334 15.9127 63.9267 15.0677 63.9267 13.9575Z" fill="black"/>
<path d="M73.212 15.2561C73.212 16.1986 72.936 16.9708 72.384 17.5766C71.8054 18.1993 71.0387 18.51 70.0814 18.51C69.1587 18.51 68.424 18.2123 67.876 17.6143C67.3294 17.0176 67.056 16.2649 67.056 15.3575C67.056 14.4085 67.3373 13.6298 67.9027 13.0253C68.468 12.4208 69.228 12.1179 70.1854 12.1179C71.108 12.1179 71.8494 12.4156 72.4107 13.0123C72.944 13.5921 73.212 14.3409 73.212 15.2561ZM71.7627 15.3003C71.7627 14.7348 71.6374 14.2499 71.388 13.8456C71.0947 13.3568 70.6774 13.1124 70.1347 13.1124C69.5734 13.1124 69.1467 13.3568 68.8533 13.8456C68.6027 14.2499 68.4787 14.7426 68.4787 15.325C68.4787 15.8905 68.604 16.3754 68.8533 16.7797C69.156 17.2685 69.5774 17.5129 70.1214 17.5129C70.6547 17.5129 71.0733 17.2646 71.3747 16.7667C71.6334 16.3546 71.7627 15.8658 71.7627 15.3003Z" fill="black"/>
<path d="M83.6867 12.2429L81.72 18.3711H80.44L79.6253 15.71C79.4187 15.0457 79.2507 14.3853 79.12 13.7301H79.0947C78.9733 14.4035 78.8053 15.0626 78.5893 15.71L77.724 18.3711H76.4293L74.58 12.2429H76.016L76.7267 15.1562C76.8987 15.8452 77.04 16.5017 77.1533 17.1231H77.1787C77.2827 16.6109 77.4547 15.9583 77.6973 15.1692L78.5893 12.2442H79.728L80.5827 15.1068C80.7893 15.8049 80.9573 16.477 81.0867 17.1244H81.1253C81.22 16.4939 81.3627 15.8218 81.552 15.1068L82.3147 12.2442H83.6867V12.2429Z" fill="black"/>
<path d="M90.9307 18.3709H89.5333V14.8609C89.5333 13.7793 89.112 13.2385 88.2667 13.2385C87.852 13.2385 87.5173 13.3867 87.2574 13.6844C87 13.9821 86.8694 14.3331 86.8694 14.7348V18.3696H85.472V13.9938C85.472 13.4556 85.4547 12.8719 85.4214 12.2401H86.6494L86.7147 13.1982H86.7534C86.916 12.9005 87.1587 12.6548 87.4774 12.4585C87.856 12.2297 88.28 12.114 88.744 12.114C89.3307 12.114 89.8187 12.2986 90.2067 12.6691C90.6893 13.1228 90.9307 13.8001 90.9307 14.6997V18.3709V18.3709Z" fill="black"/>
<path d="M94.784 18.371H93.388V9.43091H94.784V18.371Z" fill="black"/>
<path d="M103.011 15.2561C103.011 16.1986 102.735 16.9708 102.183 17.5766C101.604 18.1993 100.836 18.51 99.88 18.51C98.956 18.51 98.2214 18.2123 97.6747 17.6143C97.128 17.0176 96.8547 16.2649 96.8547 15.3575C96.8547 14.4085 97.136 13.6298 97.7014 13.0253C98.2667 12.4208 99.0267 12.1179 99.9827 12.1179C100.907 12.1179 101.647 12.4156 102.209 13.0123C102.743 13.5921 103.011 14.3409 103.011 15.2561ZM101.56 15.3003C101.56 14.7348 101.435 14.2499 101.185 13.8456C100.893 13.3568 100.475 13.1124 99.9334 13.1124C99.3707 13.1124 98.944 13.3568 98.652 13.8456C98.4014 14.2499 98.2774 14.7426 98.2774 15.325C98.2774 15.8905 98.4027 16.3754 98.652 16.7797C98.9547 17.2685 99.376 17.5129 99.92 17.5129C100.453 17.5129 100.871 17.2646 101.172 16.7667C101.432 16.3546 101.56 15.8658 101.56 15.3003Z" fill="black"/>
<path d="M109.773 18.3709H108.519L108.415 17.665H108.376C107.947 18.2279 107.335 18.51 106.54 18.51C105.947 18.51 105.467 18.3241 105.105 17.9549C104.777 17.6195 104.613 17.2022 104.613 16.7069C104.613 15.9581 104.933 15.3874 105.577 14.9922C106.22 14.597 107.124 14.4033 108.288 14.4124V14.298C108.288 13.4907 107.853 13.0877 106.983 13.0877C106.363 13.0877 105.816 13.2398 105.344 13.5414L105.06 12.647C105.644 12.2947 106.365 12.1179 107.216 12.1179C108.859 12.1179 109.683 12.9629 109.683 14.6529V16.9097C109.683 17.522 109.713 18.0095 109.773 18.3709ZM108.323 16.2649V15.3198C106.781 15.2938 106.011 15.7059 106.011 16.5548C106.011 16.8746 106.099 17.1138 106.279 17.2737C106.459 17.4336 106.688 17.5129 106.961 17.5129C107.268 17.5129 107.555 17.418 107.816 17.2295C108.079 17.0397 108.24 16.7992 108.3 16.5041C108.315 16.4378 108.323 16.3572 108.323 16.2649Z" fill="black"/>
<path d="M117.713 18.371H116.473L116.408 17.3869H116.369C115.973 18.1357 115.299 18.5101 114.351 18.5101C113.593 18.5101 112.963 18.2202 112.463 17.6404C111.963 17.0606 111.713 16.3079 111.713 15.3836C111.713 14.3917 111.984 13.5883 112.528 12.9747C113.055 12.4027 113.7 12.1167 114.468 12.1167C115.312 12.1167 115.903 12.3936 116.239 12.9487H116.265V9.43091H117.664V16.72C117.664 17.3167 117.68 17.8666 117.713 18.371ZM116.265 15.7866V14.7648C116.265 14.588 116.252 14.445 116.227 14.3358C116.148 14.0082 115.979 13.7326 115.721 13.5103C115.461 13.288 115.148 13.1762 114.787 13.1762C114.265 13.1762 113.857 13.3777 113.557 13.782C113.26 14.1863 113.109 14.7024 113.109 15.3329C113.109 15.9387 113.252 16.4301 113.539 16.8084C113.841 17.2114 114.249 17.4129 114.76 17.4129C115.219 17.4129 115.585 17.2452 115.864 16.9085C116.133 16.5978 116.265 16.2234 116.265 15.7866Z" fill="black"/>
<path d="M129.664 15.2561C129.664 16.1986 129.388 16.9708 128.836 17.5766C128.257 18.1993 127.492 18.51 126.533 18.51C125.612 18.51 124.877 18.2123 124.328 17.6143C123.781 17.0176 123.508 16.2649 123.508 15.3575C123.508 14.4085 123.789 13.6298 124.355 13.0253C124.92 12.4208 125.68 12.1179 126.639 12.1179C127.56 12.1179 128.303 12.4156 128.863 13.0123C129.396 13.5921 129.664 14.3409 129.664 15.2561ZM128.216 15.3003C128.216 14.7348 128.091 14.2499 127.841 13.8456C127.547 13.3568 127.131 13.1124 126.587 13.1124C126.027 13.1124 125.6 13.3568 125.305 13.8456C125.055 14.2499 124.931 14.7426 124.931 15.325C124.931 15.8905 125.056 16.3754 125.305 16.7797C125.608 17.2685 126.029 17.5129 126.573 17.5129C127.107 17.5129 127.527 17.2646 127.828 16.7667C128.085 16.3546 128.216 15.8658 128.216 15.3003Z" fill="black"/>
<path d="M137.177 18.3709H135.781V14.8609C135.781 13.7793 135.36 13.2385 134.513 13.2385C134.099 13.2385 133.764 13.3867 133.505 13.6844C133.247 13.9821 133.117 14.3331 133.117 14.7348V18.3696H131.719V13.9938C131.719 13.4556 131.703 12.8719 131.669 12.2401H132.896L132.961 13.1982H133C133.164 12.9005 133.407 12.6548 133.724 12.4585C134.104 12.2297 134.527 12.114 134.992 12.114C135.577 12.114 136.065 12.2986 136.453 12.6691C136.937 13.1228 137.177 13.8001 137.177 14.6997V18.3709V18.3709Z" fill="black"/>
<path d="M146.581 13.2633H145.043V16.2403C145.043 16.9969 145.316 17.3752 145.857 17.3752C146.108 17.3752 146.316 17.3544 146.48 17.3115L146.516 18.345C146.24 18.4464 145.877 18.4971 145.431 18.4971C144.879 18.4971 144.449 18.3333 144.139 18.0057C143.827 17.6781 143.672 17.1269 143.672 16.3534V13.2633H142.753V12.2428H143.672V11.1196L145.041 10.7166V12.2415H146.58V13.2633H146.581Z" fill="black"/>
<path d="M153.979 18.371H152.58V14.887C152.58 13.7885 152.159 13.2386 151.315 13.2386C150.667 13.2386 150.224 13.5571 149.981 14.1941C149.94 14.328 149.916 14.4918 149.916 14.6842V18.3697H148.52V9.43091H149.916V13.1242H149.943C150.383 12.4521 151.013 12.1167 151.831 12.1167C152.409 12.1167 152.888 12.3013 153.268 12.6718C153.741 13.1333 153.979 13.8197 153.979 14.7271V18.371V18.371Z" fill="black"/>
<path d="M161.609 15.0169C161.609 15.2613 161.591 15.4667 161.557 15.6344H157.367C157.385 16.2402 157.585 16.7017 157.973 17.0215C158.328 17.3075 158.785 17.4505 159.345 17.4505C159.965 17.4505 160.531 17.3543 161.04 17.1606L161.259 18.107C160.663 18.3592 159.961 18.4853 159.149 18.4853C158.176 18.4853 157.409 18.2058 156.855 17.6468C156.297 17.0878 156.021 16.3377 156.021 15.3965C156.021 14.4722 156.279 13.7026 156.797 13.089C157.339 12.4338 158.071 12.1062 158.995 12.1062C159.899 12.1062 160.585 12.4338 161.049 13.089C161.424 13.609 161.609 14.2525 161.609 15.0169ZM160.276 14.6646C160.287 14.2603 160.195 13.9119 160.005 13.6181C159.763 13.2398 159.393 13.05 158.893 13.05C158.437 13.05 158.065 13.2346 157.781 13.6051C157.549 13.9002 157.412 14.2525 157.367 14.6646H160.276Z" fill="black"/>
<path d="M71.5267 41.8634H68.4987L66.84 36.7817H61.0747L59.4947 41.8634H56.5467L62.2587 24.563H65.7867L71.5267 41.8634ZM66.34 34.6497L64.84 30.1322C64.6813 29.6707 64.384 28.5839 63.9453 26.8731H63.892C63.7173 27.6089 63.436 28.6957 63.0493 30.1322L61.576 34.6497H66.34V34.6497Z" fill="black"/>
<path d="M86.216 35.4727C86.216 37.5943 85.628 39.2713 84.452 40.5024C83.3987 41.5983 82.0907 42.1456 80.5293 42.1456C78.844 42.1456 77.6333 41.5554 76.896 40.375H76.8427V46.9465H74V33.4954C74 32.1616 73.964 30.7927 73.8947 29.3887H76.3947L76.5533 31.366H76.6067C77.5547 29.8762 78.9933 29.1326 80.924 29.1326C82.4333 29.1326 83.6933 29.7137 84.7013 30.8772C85.712 32.042 86.216 33.5734 86.216 35.4727ZM83.32 35.5741C83.32 34.3599 83.04 33.3589 82.4773 32.5711C81.8627 31.7495 81.0373 31.3387 80.0027 31.3387C79.3013 31.3387 78.664 31.5675 78.0947 32.0186C77.524 32.4736 77.1506 33.0677 76.976 33.8035C76.888 34.1467 76.844 34.4275 76.844 34.6485V36.7285C76.844 37.6359 77.1293 38.4016 77.7 39.0269C78.2707 39.6522 79.012 39.9642 79.924 39.9642C80.9947 39.9642 81.828 39.5612 82.424 38.7578C83.0213 37.9531 83.32 36.8923 83.32 35.5741Z" fill="black"/>
<path d="M100.932 35.4727C100.932 37.5943 100.344 39.2713 99.1667 40.5024C98.1147 41.5983 96.8067 42.1456 95.2453 42.1456C93.56 42.1456 92.3493 41.5554 91.6133 40.375H91.56V46.9465H88.7173V33.4954C88.7173 32.1616 88.6813 30.7927 88.612 29.3887H91.112L91.2707 31.366H91.324C92.2707 29.8762 93.7093 29.1326 95.6413 29.1326C97.1493 29.1326 98.4093 29.7137 99.42 30.8772C100.427 32.042 100.932 33.5734 100.932 35.4727ZM98.036 35.5741C98.036 34.3599 97.7547 33.3589 97.192 32.5711C96.5773 31.7495 95.7547 31.3387 94.7187 31.3387C94.016 31.3387 93.38 31.5675 92.8093 32.0186C92.2387 32.4736 91.8667 33.0677 91.692 33.8035C91.6053 34.1467 91.56 34.4275 91.56 34.6485V36.7285C91.56 37.6359 91.8453 38.4016 92.4133 39.0269C92.984 39.6509 93.7253 39.9642 94.64 39.9642C95.7107 39.9642 96.544 39.5612 97.14 38.7578C97.7373 37.9531 98.036 36.8923 98.036 35.5741Z" fill="black"/>
<path d="M117.385 37.0119C117.385 38.4835 116.861 39.6808 115.809 40.6051C114.653 41.6152 113.044 42.1196 110.976 42.1196C109.067 42.1196 107.536 41.7608 106.377 41.0419L107.036 38.7318C108.284 39.4676 109.653 39.8368 111.145 39.8368C112.216 39.8368 113.049 39.6002 113.648 39.1296C114.244 38.659 114.541 38.0272 114.541 37.2394C114.541 36.5374 114.296 35.9459 113.804 35.4662C113.315 34.9865 112.497 34.5406 111.356 34.1285C108.249 32.9988 106.697 31.3439 106.697 29.1677C106.697 27.7455 107.241 26.5794 108.331 25.672C109.416 24.7633 110.864 24.3096 112.675 24.3096C114.289 24.3096 115.631 24.5839 116.701 25.1312L115.991 27.3906C114.991 26.8602 113.86 26.595 112.595 26.595C111.595 26.595 110.813 26.8355 110.253 27.3139C109.78 27.7416 109.543 28.2629 109.543 28.8804C109.543 29.5642 109.813 30.1297 110.357 30.5743C110.831 30.9851 111.691 31.4297 112.939 31.9094C114.465 32.5087 115.587 33.2094 116.308 34.0128C117.027 34.8136 117.385 35.8159 117.385 37.0119Z" fill="black"/>
<path d="M126.784 31.4686H123.651V37.5253C123.651 39.0658 124.203 39.8354 125.309 39.8354C125.817 39.8354 126.239 39.7925 126.572 39.7067L126.651 41.8114C126.091 42.0155 125.353 42.1182 124.44 42.1182C123.317 42.1182 122.44 41.7841 121.807 41.1172C121.176 40.449 120.859 39.3284 120.859 37.7541V31.466H118.992V29.386H120.859V27.1019L123.651 26.2803V29.386H126.784V31.4686Z" fill="black"/>
<path d="M140.921 35.5233C140.921 37.4408 140.359 39.0151 139.236 40.2462C138.059 41.5137 136.496 42.1455 134.548 42.1455C132.671 42.1455 131.176 41.5384 130.061 40.3242C128.947 39.11 128.389 37.5773 128.389 35.73C128.389 33.7969 128.963 32.2135 130.113 30.9824C131.261 29.75 132.811 29.1338 134.759 29.1338C136.636 29.1338 138.147 29.7409 139.287 30.9564C140.377 32.1355 140.921 33.6578 140.921 35.5233ZM137.972 35.613C137.972 34.4625 137.72 33.4758 137.209 32.6529C136.613 31.6571 135.761 31.1605 134.657 31.1605C133.515 31.1605 132.647 31.6584 132.051 32.6529C131.54 33.4771 131.288 34.4794 131.288 35.665C131.288 36.8155 131.54 37.8022 132.051 38.6238C132.665 39.6196 133.524 40.1162 134.632 40.1162C135.717 40.1162 136.569 39.6092 137.184 38.5978C137.708 37.7593 137.972 36.7622 137.972 35.613Z" fill="black"/>
<path d="M150.161 31.8262C149.88 31.7755 149.58 31.7495 149.265 31.7495C148.265 31.7495 147.492 32.1174 146.948 32.8545C146.475 33.5045 146.237 34.3261 146.237 35.318V41.8635H143.396L143.423 33.3173C143.423 31.8795 143.387 30.5704 143.316 29.39H145.792L145.896 31.7768H145.975C146.275 30.9565 146.748 30.2961 147.396 29.8008C148.029 29.3549 148.713 29.1326 149.451 29.1326C149.713 29.1326 149.951 29.1508 150.161 29.1833V31.8262Z" fill="black"/>
<path d="M162.875 35.0358C162.875 35.5324 162.841 35.951 162.771 36.2929H154.243C154.276 37.5253 154.688 38.4678 155.48 39.1178C156.199 39.6989 157.128 39.9901 158.269 39.9901C159.532 39.9901 160.684 39.7938 161.72 39.3999L162.165 41.3239C160.955 41.8387 159.525 42.0948 157.876 42.0948C155.892 42.0948 154.335 41.5254 153.201 40.3879C152.071 39.2504 151.504 37.7229 151.504 35.8067C151.504 33.9256 152.031 32.3591 153.085 31.1098C154.189 29.776 155.681 29.1091 157.559 29.1091C159.403 29.1091 160.799 29.776 161.747 31.1098C162.497 32.1693 162.875 33.4797 162.875 35.0358ZM160.164 34.3169C160.183 33.4953 159.997 32.7855 159.612 32.1862C159.12 31.4153 158.364 31.0305 157.347 31.0305C156.417 31.0305 155.661 31.4062 155.084 32.1602C154.611 32.7595 154.329 33.4784 154.243 34.3156H160.164V34.3169Z" fill="black"/>
</svg>
