<svg width="22" height="14" viewBox="0 0 22 14" fill="none" xmlns="http://www.w3.org/2000/svg">
<path d="M20.891 2.50601C20.8243 2.49267 20.6366 2.45266 20.4714 2.41675C20.2888 2.37776 20.1667 2.35827 20.1564 2.36853C20.1472 2.37776 20.0528 2.3675 19.9307 2.3439C19.1459 2.18692 18.4134 1.9058 17.7619 1.51283C17.5557 1.38869 17.2746 1.1999 17.1597 1.10961L17.0991 1.06139L17.2038 0.944426C17.3361 0.795654 17.3638 0.74538 17.3679 0.646883C17.3823 0.371913 17.1002 0.0897604 16.7965 0.0774483C16.6621 0.0723182 16.6088 0.101046 16.4538 0.268286L16.3266 0.405771L16.103 0.194413L13.849 2.43829L13.889 2.49267C13.9126 2.52243 13.9608 2.57681 13.9978 2.61374L14.0644 2.68043L13.6141 3.11649C13.3658 3.35657 12.9277 3.78031 12.6405 4.05734C10.4347 6.18117 9.1687 7.45343 8.10583 8.61282C6.90447 9.92303 5.96779 11.0937 5.26503 12.1638C5.10088 12.4142 5.10396 12.3988 5.16757 12.6532C5.30299 13.1991 5.61795 13.4915 6.07039 13.4925C6.18016 13.4915 6.23248 13.4843 6.28378 13.4576C6.48281 13.3571 6.5813 13.2258 7.09016 12.3988C7.53131 11.6806 7.77549 11.303 8.12738 10.789C9.11433 9.34846 10.2254 7.95617 11.8341 6.14424C12.2875 5.63123 13.3832 4.54982 14.402 3.60692C14.5241 3.49508 14.6287 3.40274 14.6349 3.40274C14.6492 3.40274 14.7303 3.51253 14.8811 3.73517C15.275 4.31794 15.5685 4.91508 15.7849 5.5707C15.9039 5.93391 16.0394 6.4859 16.0158 6.5095C16.0055 6.51976 16.1738 7.31799 16.1933 7.3498C16.2076 7.37442 16.7134 7.24412 17.0991 7.11689C18.0389 6.80294 18.7519 6.37919 19.3634 5.76769C20.1103 5.02076 20.6499 4.00911 20.9649 2.76457C20.9967 2.64042 21.0192 2.53782 21.0162 2.53474C21.0131 2.53166 20.9556 2.51935 20.891 2.50601Z" fill="#36FC62"/>
<path d="M1.03029 2.62886C1.09698 2.61553 1.28472 2.57551 1.4499 2.5396C1.63251 2.50061 1.7546 2.48112 1.76486 2.49138C1.77409 2.50061 1.86848 2.49035 1.99056 2.46675C2.7754 2.30978 3.50791 2.02865 4.15938 1.63569C4.36559 1.51154 4.6467 1.32275 4.7616 1.23247L4.82213 1.18424L4.71749 1.06728C4.58514 0.918507 4.55744 0.868233 4.55334 0.769736C4.53898 0.494766 4.82111 0.212613 5.12478 0.200301C5.25918 0.195171 5.31253 0.223899 5.46744 0.391139L5.59466 0.528624L5.81831 0.317266L8.07228 2.56115L8.03227 2.61553C8.00867 2.64528 7.96046 2.69966 7.92352 2.7366L7.85684 2.80329L8.30722 3.23934C8.5555 3.47943 8.99357 3.90317 9.28083 4.18019C11.4866 6.30403 12.7526 7.57628 13.8154 8.73567C15.0168 10.0459 15.9535 11.2166 16.6563 12.2867C16.8204 12.537 16.8173 12.5216 16.7537 12.7761C16.6183 13.3219 16.3033 13.6143 15.8509 13.6154C15.7411 13.6143 15.6888 13.6072 15.6375 13.5805C15.4385 13.4799 15.34 13.3486 14.8311 12.5216C14.39 11.8034 14.1458 11.4259 13.7939 10.9118C12.807 9.47132 11.6959 8.07902 10.0872 6.26709C9.63375 5.75409 8.53806 4.67267 7.51931 3.72977C7.39722 3.61794 7.29258 3.5256 7.28642 3.5256C7.27206 3.5256 7.19101 3.63538 7.0402 3.85802C6.64624 4.4408 6.35282 5.03793 6.13635 5.69355C6.01734 6.05676 5.88192 6.60875 5.90552 6.63235C5.91578 6.64261 5.74752 7.44085 5.72803 7.47265C5.71367 7.49728 5.20788 7.36697 4.82213 7.23975C3.88238 6.92579 3.16936 6.50205 2.5579 5.89055C1.81102 5.14361 1.27138 4.13197 0.956423 2.88742C0.92462 2.76327 0.902049 2.66067 0.905127 2.65759C0.908205 2.65451 0.965657 2.6422 1.03029 2.62886Z" fill="#36FC62"/>
</svg>
