<svg width="227" height="112" viewBox="0 0 227 112" fill="none" xmlns="http://www.w3.org/2000/svg">
<g clip-path="url(#clip0_1_2742)">
<path d="M3.9413 104.421C5.72488 104.746 7.02205 106.532 6.69777 108.317C6.37348 110.103 4.58986 111.401 2.80629 111.077C1.02272 110.752 -0.274444 108.967 0.0498415 107.181C0.374127 105.233 2.15773 104.097 3.9413 104.421Z" fill="#36FC62"/>
<path d="M3.9413 78.2882C5.72488 78.6128 7.02205 80.3983 6.69777 82.1838C6.37348 83.9693 4.58986 85.2679 2.80629 84.9433C1.02272 84.6186 -0.274444 82.8331 0.0498415 81.0476C0.374127 79.2621 2.15773 77.9635 3.9413 78.2882Z" fill="#36FC62"/>
<path d="M3.9413 52.317C5.72488 52.6417 7.02205 54.4272 6.69777 56.2127C6.37348 57.9982 4.58986 59.2968 2.80629 58.9721C1.02272 58.6475 -0.274444 56.862 0.0498415 55.0765C0.374127 53.1286 2.15773 51.8301 3.9413 52.317Z" fill="#36FC62"/>
<path d="M3.9413 26.1834C5.72488 26.5081 7.02205 28.2938 6.69777 30.0793C6.37348 31.8648 4.58986 33.1633 2.80629 32.8387C1.02272 32.514 -0.274444 30.7285 0.0498415 28.943C0.374127 26.9952 2.15773 25.8588 3.9413 26.1834Z" fill="#36FC62"/>
<path d="M3.9413 0.0498955C5.72488 0.374533 7.02205 2.16008 6.69777 3.94559C6.37348 5.7311 4.58986 7.02957 2.80629 6.70493C1.02272 6.38029 -0.274444 4.59485 0.0498415 2.80934C0.374127 1.02383 2.15773 -0.274742 3.9413 0.0498955Z" fill="#36FC62"/>
<path d="M25.8306 104.421C27.6142 104.746 28.9114 106.532 28.5871 108.317C28.2628 110.103 26.4792 111.401 24.6956 111.077C22.9121 110.752 21.6148 108.967 21.9391 107.181C22.2633 105.233 24.0471 104.097 25.8306 104.421Z" fill="#36FC62"/>
<path d="M25.8306 78.2882C27.6142 78.6128 28.9114 80.3983 28.5871 82.1838C28.2628 83.9693 26.4792 85.2679 24.6956 84.9433C22.9121 84.6186 21.6148 82.8331 21.9391 81.0476C22.2633 79.2621 24.0471 77.9635 25.8306 78.2882Z" fill="#36FC62"/>
<path d="M25.8306 52.317C27.6142 52.6417 28.9114 54.4272 28.5871 56.2127C28.2628 57.9982 26.4792 59.2968 24.6956 58.9721C22.9121 58.6475 21.6148 56.862 21.9391 55.0765C22.2633 53.1286 24.0471 51.8301 25.8306 52.317Z" fill="#36FC62"/>
<path d="M25.8306 26.1834C27.6142 26.5081 28.9114 28.2938 28.5871 30.0793C28.2628 31.8648 26.4792 33.1633 24.6956 32.8387C22.9121 32.514 21.6148 30.7285 21.9391 28.943C22.2633 26.9952 24.0471 25.8588 25.8306 26.1834Z" fill="#36FC62"/>
<path d="M25.8306 0.0501397C27.6142 0.374777 28.9114 2.16033 28.5871 3.94583C28.2628 5.73134 26.4792 7.02981 24.6956 6.70517C22.9121 6.38054 21.6148 4.59509 21.9391 2.80959C22.2633 1.02407 24.0471 -0.274498 25.8306 0.0501397Z" fill="#36FC62"/>
<path d="M47.8813 104.421C49.6649 104.746 50.962 106.532 50.6377 108.317C50.3134 110.103 48.5299 111.401 46.7463 111.077C44.9627 110.752 43.6657 108.967 43.99 107.181C44.3143 105.233 45.9356 104.097 47.8813 104.421Z" fill="#36FC62"/>
<path d="M47.8813 78.2882C49.6649 78.6128 50.962 80.3983 50.6377 82.1838C50.3134 83.9693 48.5299 85.2679 46.7463 84.9433C44.9627 84.6186 43.6657 82.8331 43.99 81.0476C44.3143 79.2621 45.9356 77.9635 47.8813 78.2882Z" fill="#36FC62"/>
<path d="M47.8813 52.317C49.6649 52.6417 50.962 54.4272 50.6377 56.2127C50.3134 57.9982 48.5299 59.2968 46.7463 58.9721C44.9627 58.6475 43.6657 56.862 43.99 55.0765C44.3143 53.1286 45.9356 51.8301 47.8813 52.317Z" fill="#36FC62"/>
<path d="M47.8813 26.1834C49.6649 26.5081 50.962 28.2938 50.6377 30.0793C50.3134 31.8648 48.5299 33.1633 46.7463 32.8387C44.9627 32.514 43.6657 30.7285 43.99 28.943C44.3143 26.9952 45.9356 25.8588 47.8813 26.1834Z" fill="#36FC62"/>
<path d="M47.8813 0.0501397C49.6649 0.374777 50.962 2.16033 50.6377 3.94583C50.3134 5.73134 48.5299 7.02981 46.7463 6.70517C44.9627 6.38054 43.6657 4.59509 43.99 2.80959C44.3143 1.02407 45.9356 -0.274498 47.8813 0.0501397Z" fill="#36FC62"/>
<path d="M69.7706 104.421C71.5542 104.746 72.8513 106.532 72.527 108.317C72.2027 110.103 70.4191 111.401 68.6356 111.077C66.852 110.752 65.555 108.967 65.8793 107.181C66.2036 105.233 67.987 104.097 69.7706 104.421Z" fill="#36FC62"/>
<path d="M69.7706 78.2882C71.5542 78.6128 72.8513 80.3983 72.527 82.1838C72.2027 83.9693 70.4191 85.2679 68.6356 84.9433C66.852 84.6186 65.555 82.8331 65.8793 81.0476C66.2036 79.2621 67.987 77.9635 69.7706 78.2882Z" fill="#36FC62"/>
<path d="M69.7706 52.317C71.5542 52.6417 72.8513 54.4272 72.527 56.2127C72.2027 57.9982 70.4191 59.2968 68.6356 58.9721C66.852 58.6475 65.555 56.862 65.8793 55.0765C66.2036 53.1286 67.987 51.8301 69.7706 52.317Z" fill="#36FC62"/>
<path d="M69.7706 26.1834C71.5542 26.5081 72.8513 28.2938 72.527 30.0793C72.2027 31.8648 70.4191 33.1633 68.6356 32.8387C66.852 32.514 65.555 30.7285 65.8793 28.943C66.2036 26.9952 67.987 25.8588 69.7706 26.1834Z" fill="#36FC62"/>
<path d="M69.7706 0.0501397C71.5542 0.374777 72.8513 2.16033 72.527 3.94583C72.2027 5.73134 70.4191 7.02981 68.6356 6.70517C66.852 6.38054 65.555 4.59509 65.8793 2.80959C66.2036 1.02407 67.987 -0.274498 69.7706 0.0501397Z" fill="#36FC62"/>
<path d="M91.6599 104.421C93.4434 104.746 94.7406 106.532 94.4163 108.317C94.092 110.103 92.3084 111.401 90.5249 111.077C88.7413 110.752 87.4443 108.967 87.7686 107.181C88.0929 105.233 89.8763 104.097 91.6599 104.421Z" fill="#36FC62"/>
<path d="M91.6599 78.2882C93.4434 78.6128 94.7406 80.3983 94.4163 82.1838C94.092 83.9693 92.3084 85.2679 90.5249 84.9433C88.7413 84.6186 87.4443 82.8331 87.7686 81.0476C88.0929 79.2621 89.8763 77.9635 91.6599 78.2882Z" fill="#36FC62"/>
<path d="M91.6599 52.317C93.4434 52.6417 94.7406 54.4272 94.4163 56.2127C94.092 57.9982 92.3084 59.2968 90.5249 58.9721C88.7413 58.6475 87.4443 56.862 87.7686 55.0765C88.0929 53.1286 89.8763 51.8301 91.6599 52.317Z" fill="#36FC62"/>
<path d="M91.6599 26.1834C93.4434 26.5081 94.7406 28.2938 94.4163 30.0793C94.092 31.8648 92.3084 33.1633 90.5249 32.8387C88.7413 32.514 87.4443 30.7285 87.7686 28.943C88.0929 26.9952 89.8763 25.8588 91.6599 26.1834Z" fill="#36FC62"/>
<path d="M91.6599 0.0501397C93.4434 0.374777 94.7406 2.16033 94.4163 3.94583C94.092 5.73134 92.3084 7.02981 90.5249 6.70517C88.7413 6.38054 87.4443 4.59509 87.7686 2.80959C88.0929 1.02407 89.8763 -0.274498 91.6599 0.0501397Z" fill="#36FC62"/>
<path d="M113.712 104.421C115.496 104.746 116.793 106.532 116.469 108.317C116.144 110.103 114.361 111.401 112.577 111.077C110.794 110.752 109.497 108.967 109.821 107.181C109.983 105.233 111.767 104.097 113.712 104.421Z" fill="#36FC62"/>
<path d="M113.712 78.2882C115.496 78.6128 116.793 80.3983 116.469 82.1838C116.144 83.9693 114.361 85.2679 112.577 84.9433C110.794 84.6186 109.497 82.8331 109.821 81.0476C109.983 79.2621 111.767 77.9635 113.712 78.2882Z" fill="#36FC62"/>
<path d="M113.712 52.317C115.496 52.6417 116.793 54.4272 116.469 56.2127C116.144 57.9982 114.361 59.2968 112.577 58.9721C110.794 58.6475 109.497 56.862 109.821 55.0765C109.983 53.1286 111.767 51.8301 113.712 52.317Z" fill="#36FC62"/>
<path d="M113.712 26.1834C115.496 26.5081 116.793 28.2938 116.469 30.0793C116.144 31.8648 114.361 33.1633 112.577 32.8387C110.794 32.514 109.497 30.7285 109.821 28.943C109.983 26.9952 111.767 25.8588 113.712 26.1834Z" fill="#36FC62"/>
<path d="M113.712 0.0501397C115.496 0.374777 116.793 2.16033 116.469 3.94583C116.144 5.73134 114.361 7.02981 112.577 6.70517C110.794 6.38054 109.497 4.59509 109.821 2.80959C109.983 1.02407 111.767 -0.274498 113.712 0.0501397Z" fill="#36FC62"/>
<path d="M135.602 104.421C137.385 104.746 138.682 106.532 138.358 108.317C138.034 110.103 136.25 111.401 134.467 111.077C132.683 110.752 131.386 108.967 131.71 107.181C132.034 105.233 133.818 104.097 135.602 104.421Z" fill="#36FC62"/>
<path d="M135.602 78.2882C137.385 78.6128 138.682 80.3983 138.358 82.1838C138.034 83.9693 136.25 85.2679 134.467 84.9433C132.683 84.6186 131.386 82.8331 131.71 81.0476C132.034 79.2621 133.818 77.9635 135.602 78.2882Z" fill="#36FC62"/>
<path d="M135.602 52.317C137.385 52.6417 138.682 54.4272 138.358 56.2127C138.034 57.9982 136.25 59.2968 134.467 58.9721C132.683 58.6475 131.386 56.862 131.71 55.0765C132.034 53.1286 133.818 51.8301 135.602 52.317Z" fill="#36FC62"/>
<path d="M135.602 26.1834C137.385 26.5081 138.682 28.2938 138.358 30.0793C138.034 31.8648 136.25 33.1633 134.467 32.8387C132.683 32.514 131.386 30.7285 131.71 28.943C132.034 26.9952 133.818 25.8588 135.602 26.1834Z" fill="#36FC62"/>
<path d="M135.602 0.0501397C137.385 0.374777 138.682 2.16033 138.358 3.94583C138.034 5.73134 136.25 7.02981 134.467 6.70517C132.683 6.38054 131.386 4.59509 131.71 2.80959C132.034 1.02407 133.818 -0.274498 135.602 0.0501397Z" fill="#36FC62"/>
<path d="M157.491 104.421C159.275 104.746 160.572 106.532 160.247 108.317C159.923 110.103 158.139 111.401 156.356 111.077C154.572 110.752 153.275 108.967 153.599 107.181C153.924 105.233 155.707 104.097 157.491 104.421Z" fill="#36FC62"/>
<path d="M157.491 78.2882C159.275 78.6128 160.572 80.3983 160.247 82.1838C159.923 83.9693 158.139 85.2679 156.356 84.9433C154.572 84.6186 153.275 82.8331 153.599 81.0476C153.924 79.2621 155.707 77.9635 157.491 78.2882Z" fill="#36FC62"/>
<path d="M157.491 52.317C159.275 52.6417 160.572 54.4272 160.247 56.2127C159.923 57.9982 158.139 59.2968 156.356 58.9721C154.572 58.6475 153.275 56.862 153.599 55.0765C153.924 53.1286 155.707 51.8301 157.491 52.317Z" fill="#36FC62"/>
<path d="M157.491 26.1834C159.275 26.5081 160.572 28.2938 160.247 30.0793C159.923 31.8648 158.139 33.1633 156.356 32.8387C154.572 32.514 153.275 30.7285 153.599 28.943C153.924 26.9952 155.707 25.8588 157.491 26.1834Z" fill="#36FC62"/>
<path d="M157.491 0.0501397C159.275 0.374777 160.572 2.16033 160.247 3.94583C159.923 5.73134 158.139 7.02981 156.356 6.70517C154.572 6.38054 153.275 4.59509 153.599 2.80959C153.924 1.02407 155.707 -0.274498 157.491 0.0501397Z" fill="#36FC62"/>
<path d="M179.38 104.421C181.164 104.746 182.461 106.532 182.137 108.317C181.812 110.103 180.029 111.401 178.245 111.077C176.462 110.752 175.165 108.967 175.489 107.181C175.813 105.233 177.597 104.097 179.38 104.421Z" fill="#36FC62"/>
<path d="M182.297 81.6968C182.297 79.8142 180.773 78.2881 178.892 78.2881C177.013 78.2881 175.487 79.8142 175.487 81.6968C175.487 83.5794 177.013 85.1056 178.892 85.1056C180.773 85.1056 182.297 83.5794 182.297 81.6968Z" fill="#36FC62"/>
<path d="M182.234 55.1637C181.979 53.2983 180.262 51.9923 178.399 52.2465C176.536 52.5005 175.233 54.2186 175.486 56.084C175.74 57.9492 177.456 59.2552 179.319 59.001C181.182 58.747 182.487 57.0289 182.234 55.1637Z" fill="#36FC62"/>
<path d="M179.38 26.1834C181.164 26.5081 182.461 28.2938 182.137 30.0793C181.812 31.8648 180.029 33.1633 178.245 32.8387C176.462 32.514 175.165 30.7285 175.489 28.943C175.813 26.9952 177.597 25.8588 179.38 26.1834Z" fill="#36FC62"/>
<path d="M179.38 0.0501397C181.164 0.374777 182.461 2.16033 182.137 3.94583C181.812 5.73134 180.029 7.02981 178.245 6.70517C176.462 6.38054 175.165 4.59509 175.489 2.80959C175.813 1.02407 177.597 -0.274498 179.38 0.0501397Z" fill="#36FC62"/>
<path d="M201.433 104.421C203.217 104.746 204.514 106.532 204.19 108.317C203.865 110.103 202.082 111.401 200.298 111.077C198.515 110.752 197.218 108.967 197.542 107.181C197.866 105.233 199.488 104.097 201.433 104.421Z" fill="#36FC62"/>
<path d="M204.188 81.6968C204.188 79.8142 202.664 78.2881 200.783 78.2881C198.904 78.2881 197.378 79.8142 197.378 81.6968C197.378 83.5794 198.904 85.1056 200.783 85.1056C202.664 85.1056 204.188 83.5794 204.188 81.6968Z" fill="#36FC62"/>
<path d="M204.125 55.1706C203.87 53.3053 202.153 51.9992 200.29 52.2533C198.427 52.5075 197.124 54.2256 197.376 56.091C197.631 57.9562 199.347 59.2622 201.21 59.008C203.073 58.7538 204.378 57.0358 204.125 55.1706Z" fill="#36FC62"/>
<path d="M201.433 26.1834C203.217 26.5081 204.514 28.2938 204.19 30.0793C203.865 31.8648 202.082 33.1633 200.298 32.8387C198.515 32.514 197.218 30.7285 197.542 28.943C197.866 26.9952 199.488 25.8588 201.433 26.1834Z" fill="#36FC62"/>
<path d="M201.432 0.0501397C203.215 0.374777 204.512 2.16033 204.188 3.94583C203.864 5.73134 202.08 7.02981 200.297 6.70517C198.513 6.38054 197.216 4.59509 197.54 2.80959C197.865 1.02407 199.486 -0.274498 201.432 0.0501397Z" fill="#36FC62"/>
<path d="M223.321 104.421C225.105 104.746 226.402 106.532 226.077 108.317C225.753 110.103 223.97 111.401 222.186 111.077C220.402 110.752 219.105 108.967 219.43 107.181C219.754 105.233 221.537 104.097 223.321 104.421Z" fill="#36FC62"/>
<path d="M226.076 81.6968C226.076 79.8142 224.552 78.2881 222.671 78.2881C220.792 78.2881 219.266 79.8142 219.266 81.6968C219.266 83.5794 220.792 85.1056 222.671 85.1056C224.552 85.1056 226.076 83.5794 226.076 81.6968Z" fill="#36FC62"/>
<path d="M226.013 55.1779C225.758 53.3126 224.041 52.0066 222.178 52.2606C220.315 52.5148 219.011 54.2329 219.264 56.0983C219.519 57.9635 221.234 59.2695 223.097 59.0153C224.96 58.7611 226.266 57.0431 226.013 55.1779Z" fill="#36FC62"/>
<path d="M223.321 26.1834C225.105 26.5081 226.402 28.2938 226.077 30.0793C225.753 31.8648 223.97 33.1633 222.186 32.8387C220.402 32.514 219.105 30.7285 219.43 28.943C219.754 26.9952 221.537 25.8588 223.321 26.1834Z" fill="#36FC62"/>
<path d="M223.321 0.0501397C225.105 0.374777 226.402 2.16033 226.077 3.94583C225.753 5.73134 223.97 7.02981 222.186 6.70517C220.402 6.38054 219.105 4.59509 219.43 2.80959C219.754 1.02407 221.537 -0.274498 223.321 0.0501397Z" fill="#36FC62"/>
</g>
<defs>
<clipPath id="clip0_1_2742">
<rect width="227" height="112" fill="white"/>
</clipPath>
</defs>
</svg>
