<svg width="349" height="251" viewBox="0 0 349 251" fill="none" xmlns="http://www.w3.org/2000/svg">
<path d="M2.34229 163.099C21.4984 149.937 24.4822 143.434 29.2846 122.592C31.1568 114.467 32.1485 126.741 32.5322 128.943C34.5255 140.377 36.5904 151.764 38.3722 163.238C38.6739 165.181 42.4714 185.364 44.1497 175.166C47.9402 152.131 48.8469 120.817 44.1426 97.8017C38.6776 71.0643 48.0554 152.267 51.3346 179.36C51.926 184.245 54.1332 194.423 55.3767 183.492C57.6162 163.806 56.6493 143.551 56.7844 123.785C56.8563 113.303 54.4656 96.7184 59.5094 86.9562C61.4619 83.1771 69.5213 111.378 69.9979 113.253C75.6571 135.521 79.6533 160.011 88.9118 181.133C89.3356 182.099 92.2442 188.154 93.4835 183.924C98.3163 167.429 96.0809 146.792 96.3549 129.822C96.8585 98.6342 95.4719 67.5806 94.5427 36.4202C94.3071 28.5156 91.086 -18.0332 98.6407 12.7539C107.098 47.2191 112.779 82.7459 119.618 117.567C124.053 140.148 128.078 162.809 132.51 185.39C133.612 191.004 134.1 200.566 137.681 205.462C140.549 209.382 141.255 196.257 141.542 191.406C142.256 179.352 141.714 167.203 141.124 155.156C139.645 124.972 136.343 94.8723 134.28 64.7206C131.238 20.2551 142.417 154.048 154.923 196.822C156.958 203.783 160.987 222.414 164.763 216.224C174.337 200.532 166.781 179.478 166.673 161.089C166.588 146.675 165.686 132.234 166.561 117.846C166.965 111.209 163.872 97.7726 170.491 98.2903C178.001 98.8775 177.524 111.713 179.858 118.886C184.427 132.928 187.631 147.384 191.134 161.731C197.402 187.401 199.812 218.928 210.564 243.721C215.106 254.197 216.977 236.099 217.01 233.895C217.642 191.47 194.661 65.6634 200.772 107.649C203.45 126.05 209.198 144.106 213.177 162.247C214.034 166.153 222.469 207.004 227.234 185.153C232.039 163.113 231.276 139.102 231.276 116.618C231.276 100.307 233.233 102.969 239.562 117.05C245.146 129.474 252.65 146.72 269.395 145.309C282.692 144.188 295.395 128.55 304.033 120.275C317.841 107.046 331.313 93.4826 345.177 80.3119" stroke="#36FC62" stroke-width="2" stroke-linecap="round"/>
</svg>
