<svg width="132" height="62" viewBox="0 0 132 62" fill="none" xmlns="http://www.w3.org/2000/svg">
<path d="M35.1105 12.724C34.2465 12.724 33.4838 12.5693 32.8225 12.26C32.1612 11.9507 31.6438 11.508 31.2705 10.932C30.8972 10.356 30.7105 9.66266 30.7105 8.85199V8.40399H32.7905V8.85199C32.7905 9.52399 32.9985 10.0307 33.4145 10.372C33.8305 10.7027 34.3958 10.868 35.1105 10.868C35.8358 10.868 36.3745 10.724 36.7265 10.436C37.0892 10.148 37.2705 9.77999 37.2705 9.33199C37.2705 9.02266 37.1798 8.77199 36.9985 8.57999C36.8278 8.38799 36.5718 8.23332 36.2305 8.11599C35.8998 7.98799 35.4945 7.87066 35.0145 7.76399L34.6465 7.68399C33.8785 7.51332 33.2172 7.29999 32.6625 7.04399C32.1185 6.77732 31.6972 6.43066 31.3985 6.00399C31.1105 5.57732 30.9665 5.02266 30.9665 4.33999C30.9665 3.65732 31.1265 3.07599 31.4465 2.59599C31.7772 2.10532 32.2358 1.73199 32.8225 1.47599C33.4198 1.20932 34.1185 1.07599 34.9185 1.07599C35.7185 1.07599 36.4278 1.21466 37.0465 1.49199C37.6758 1.75866 38.1665 2.16399 38.5185 2.70799C38.8812 3.24132 39.0625 3.91332 39.0625 4.72399V5.20399H36.9825V4.72399C36.9825 4.29732 36.8972 3.95599 36.7265 3.69999C36.5665 3.43332 36.3318 3.24132 36.0225 3.12399C35.7132 2.99599 35.3452 2.93199 34.9185 2.93199C34.2785 2.93199 33.8038 3.05466 33.4945 3.29999C33.1958 3.53466 33.0465 3.85999 33.0465 4.27599C33.0465 4.55332 33.1158 4.78799 33.2545 4.97999C33.4038 5.17199 33.6225 5.33199 33.9105 5.45999C34.1985 5.58799 34.5665 5.69999 35.0145 5.79599L35.3825 5.87599C36.1825 6.04666 36.8758 6.26532 37.4625 6.53199C38.0598 6.79866 38.5238 7.15066 38.8545 7.58799C39.1852 8.02532 39.3505 8.58532 39.3505 9.26799C39.3505 9.95066 39.1745 10.5533 38.8225 11.076C38.4812 11.588 37.9905 11.9933 37.3505 12.292C36.7212 12.58 35.9745 12.724 35.1105 12.724Z" fill="#36FC62"/>
<path d="M40.1176 12.5L43.0616 1.29999H46.7416L49.6856 12.5H47.5096L46.9016 10.036H42.9016L42.2936 12.5H40.1176ZM43.3976 8.08399H46.4056L45.0456 2.62799H44.7576L43.3976 8.08399Z" fill="#36FC62"/>
<path d="M50.9863 12.5V1.29999H55.0023L57.2263 11.06H57.5143V1.29999H59.5943V12.5H55.5783L53.3543 2.73999H53.0663V12.5H50.9863Z" fill="#36FC62"/>
<path d="M61.345 12.5V10.644H62.817V3.15599H61.345V1.29999H65.953C67.457 1.29999 68.5983 1.68399 69.377 2.45199C70.1663 3.20932 70.561 4.33999 70.561 5.84399V7.95599C70.561 9.45999 70.1663 10.596 69.377 11.364C68.5983 12.1213 67.457 12.5 65.953 12.5H61.345ZM64.929 10.58H65.985C66.8383 10.58 67.4623 10.356 67.857 9.90799C68.2517 9.45999 68.449 8.83066 68.449 8.01999V5.77999C68.449 4.95866 68.2517 4.32932 67.857 3.89199C67.4623 3.44399 66.8383 3.21999 65.985 3.21999H64.929V10.58Z" fill="#36FC62"/>
<path d="M71.6019 12.5V10.644H73.0739V3.15599H71.6019V1.29999H77.3619C78.0446 1.29999 78.6366 1.41732 79.1379 1.65199C79.6499 1.87599 80.0446 2.20132 80.3219 2.62799C80.6099 3.04399 80.7539 3.54532 80.7539 4.13199V4.29199C80.7539 4.80399 80.6579 5.22532 80.4659 5.55599C80.2739 5.87599 80.0446 6.12666 79.7779 6.30799C79.5219 6.47866 79.2766 6.60132 79.0419 6.67599V6.96399C79.2766 7.02799 79.5326 7.15066 79.8099 7.33199C80.0872 7.50266 80.3219 7.75332 80.5139 8.08399C80.7166 8.41466 80.8179 8.84666 80.8179 9.37999V9.53999C80.8179 10.1587 80.6739 10.692 80.3859 11.14C80.0979 11.5773 79.6979 11.9133 79.1859 12.148C78.6846 12.3827 78.0979 12.5 77.4259 12.5H71.6019ZM75.1859 10.58H77.1699C77.6286 10.58 77.9966 10.468 78.2739 10.244C78.5619 10.02 78.7059 9.69999 78.7059 9.28399V9.12399C78.7059 8.70799 78.5672 8.38799 78.2899 8.16399C78.0126 7.93999 77.6392 7.82799 77.1699 7.82799H75.1859V10.58ZM75.1859 5.90799H77.1379C77.5752 5.90799 77.9326 5.79599 78.2099 5.57199C78.4979 5.34799 78.6419 5.03866 78.6419 4.64399V4.48399C78.6419 4.07866 78.5032 3.76932 78.2259 3.55599C77.9486 3.33199 77.5859 3.21999 77.1379 3.21999H75.1859V5.90799Z" fill="#36FC62"/>
<path d="M86.8589 12.724C85.4509 12.724 84.3309 12.34 83.4989 11.572C82.6669 10.7933 82.2509 9.68399 82.2509 8.24399V5.55599C82.2509 4.11599 82.6669 3.01199 83.4989 2.24399C84.3309 1.46532 85.4509 1.07599 86.8589 1.07599C88.2669 1.07599 89.3869 1.46532 90.2189 2.24399C91.0509 3.01199 91.4669 4.11599 91.4669 5.55599V8.24399C91.4669 9.68399 91.0509 10.7933 90.2189 11.572C89.3869 12.34 88.2669 12.724 86.8589 12.724ZM86.8589 10.836C87.6482 10.836 88.2615 10.6067 88.6989 10.148C89.1362 9.68932 89.3549 9.07599 89.3549 8.30799V5.49199C89.3549 4.72399 89.1362 4.11066 88.6989 3.65199C88.2615 3.19332 87.6482 2.96399 86.8589 2.96399C86.0802 2.96399 85.4669 3.19332 85.0189 3.65199C84.5815 4.11066 84.3629 4.72399 84.3629 5.49199V8.30799C84.3629 9.07599 84.5815 9.68932 85.0189 10.148C85.4669 10.6067 86.0802 10.836 86.8589 10.836Z" fill="#36FC62"/>
<path d="M92.1848 12.5L95.4648 6.85199L92.2168 1.29999H94.6168L96.8408 5.34799H97.1288L99.3528 1.29999H101.753L98.5048 6.85199L101.785 12.5H99.3848L97.1288 8.35599H96.8408L94.5848 12.5H92.1848Z" fill="#36FC62"/>
<path d="M1.29651 42.5L7.73651 18H15.7865L22.2265 42.5H17.4665L16.1365 37.11H7.38651L6.05651 42.5H1.29651ZM8.47151 32.84H15.0515L12.0765 20.905H11.4465L8.47151 32.84Z" fill="white"/>
<path d="M25.0716 42.5V18H35.7116C37.2516 18 38.5933 18.2683 39.7366 18.805C40.88 19.3417 41.7666 20.1 42.3966 21.08C43.0266 22.06 43.3416 23.215 43.3416 24.545V24.965C43.3416 26.435 42.9916 27.625 42.2916 28.535C41.5916 29.445 40.7283 30.11 39.7016 30.53V31.16C40.635 31.2067 41.3583 31.5333 41.8716 32.14C42.385 32.7233 42.6416 33.505 42.6416 34.485V42.5H38.0216V35.15C38.0216 34.59 37.87 34.135 37.5666 33.785C37.2866 33.435 36.8083 33.26 36.1316 33.26H29.6916V42.5H25.0716ZM29.6916 29.06H35.2216C36.3183 29.06 37.17 28.7683 37.7766 28.185C38.4066 27.5783 38.7216 26.785 38.7216 25.805V25.455C38.7216 24.475 38.4183 23.6933 37.8116 23.11C37.205 22.5033 36.3416 22.2 35.2216 22.2H29.6916V29.06Z" fill="white"/>
<path d="M56.4084 42.99C53.3751 42.99 50.9717 42.15 49.1984 40.47C47.4251 38.7667 46.5384 36.34 46.5384 33.19V27.31C46.5384 24.16 47.4251 21.745 49.1984 20.065C50.9717 18.3617 53.3751 17.51 56.4084 17.51C59.4184 17.51 61.7401 18.3383 63.3734 19.995C65.0301 21.6283 65.8584 23.88 65.8584 26.75V26.96H61.3084V26.61C61.3084 25.1633 60.9001 23.9733 60.0834 23.04C59.2901 22.1067 58.0651 21.64 56.4084 21.64C54.7751 21.64 53.4917 22.1417 52.5584 23.145C51.6251 24.1483 51.1584 25.5133 51.1584 27.24V33.26C51.1584 34.9633 51.6251 36.3283 52.5584 37.355C53.4917 38.3583 54.7751 38.86 56.4084 38.86C58.0651 38.86 59.2901 38.3933 60.0834 37.46C60.9001 36.5033 61.3084 35.3133 61.3084 33.89V33.26H65.8584V33.75C65.8584 36.62 65.0301 38.8833 63.3734 40.54C61.7401 42.1733 59.4184 42.99 56.4084 42.99Z" fill="white"/>
<path d="M67.5819 42.5L74.0219 18H82.0719L88.5119 42.5H83.7519L82.4219 37.11H73.6719L72.3419 42.5H67.5819ZM74.7569 32.84H81.3369L78.3619 20.905H77.7319L74.7569 32.84Z" fill="white"/>
<path d="M90.657 42.5V38.44H93.877V22.06H90.657V18H100.737C104.027 18 106.524 18.84 108.227 20.52C109.954 22.1767 110.817 24.65 110.817 27.94V32.56C110.817 35.85 109.954 38.335 108.227 40.015C106.524 41.6717 104.027 42.5 100.737 42.5H90.657ZM98.497 38.3H100.807C102.674 38.3 104.039 37.81 104.902 36.83C105.765 35.85 106.197 34.4733 106.197 32.7V27.8C106.197 26.0033 105.765 24.6267 104.902 23.67C104.039 22.69 102.674 22.2 100.807 22.2H98.497V38.3Z" fill="white"/>
<path d="M114.58 42.5V18H130.33V22.2H119.2V28.045H129.35V32.245H119.2V38.3H130.54V42.5H114.58Z" fill="white"/>
<path d="M46.9025 60.5V57.812L52.4385 51.444V51.188H47.0625V49.3H54.6465V51.988L49.1105 58.356V58.612H54.6785V60.5H46.9025Z" fill="#36FC62"/>
<path d="M60.5657 60.724C59.1577 60.724 58.0377 60.34 57.2057 59.572C56.3737 58.7933 55.9577 57.684 55.9577 56.244V53.556C55.9577 52.116 56.3737 51.012 57.2057 50.244C58.0377 49.4653 59.1577 49.076 60.5657 49.076C61.9737 49.076 63.0937 49.4653 63.9257 50.244C64.7577 51.012 65.1737 52.116 65.1737 53.556V56.244C65.1737 57.684 64.7577 58.7933 63.9257 59.572C63.0937 60.34 61.9737 60.724 60.5657 60.724ZM60.5657 58.836C61.3551 58.836 61.9684 58.6067 62.4057 58.148C62.8431 57.6893 63.0617 57.076 63.0617 56.308V53.492C63.0617 52.724 62.8431 52.1107 62.4057 51.652C61.9684 51.1933 61.3551 50.964 60.5657 50.964C59.7871 50.964 59.1737 51.1933 58.7257 51.652C58.2884 52.1107 58.0697 52.724 58.0697 53.492V56.308C58.0697 57.076 58.2884 57.6893 58.7257 58.148C59.1737 58.6067 59.7871 58.836 60.5657 58.836Z" fill="#36FC62"/>
<path d="M66.9862 60.5V49.3H71.0022L73.2262 59.06H73.5142V49.3H75.5942V60.5H71.5782L69.3542 50.74H69.0662V60.5H66.9862Z" fill="#36FC62"/>
<path d="M77.665 60.5V49.3H84.865V51.22H79.777V53.892H84.417V55.812H79.777V58.58H84.961V60.5H77.665Z" fill="#36FC62"/>
</svg>
