<svg width="25" height="14" viewBox="0 0 25 14" fill="none" xmlns="http://www.w3.org/2000/svg">
<path d="M13.5878 0.824756C12.4872 1.06958 11.6582 1.80378 11.2459 2.89554C11.1342 3.18922 11.1199 3.29687 11.1199 3.88449C11.1151 4.43775 11.1345 4.60419 11.2217 4.8882C11.5272 5.85271 12.2641 6.60651 13.2483 6.94931C13.5875 7.06689 13.7138 7.08648 14.2179 7.08648C14.7028 7.09132 14.8578 7.07172 15.139 6.97883C15.687 6.7928 16.036 6.5775 16.4287 6.18584C17.0736 5.54453 17.3645 4.83959 17.3645 3.93386C17.3645 3.02813 17.0736 2.32803 16.4239 1.67195C15.6726 0.9179 14.6009 0.599533 13.5878 0.824756ZM14.7512 2.62146C14.9936 2.9103 14.824 3.2335 14.3875 3.30196C13.9172 3.37551 13.6601 3.64476 13.5971 4.12931C13.5437 4.53064 13.185 4.69733 12.899 4.45251C12.773 4.34486 12.7631 4.30567 12.773 4.02649C12.7972 3.21391 13.5389 2.47462 14.3487 2.46978C14.5962 2.46494 14.635 2.47945 14.7512 2.62146Z" fill="#36FC62"/>
<path d="M2.10144 3.08167C1.2773 3.28247 0.559509 3.95788 0.273705 4.79999C0.181713 5.06924 0.157266 5.23568 0.162306 5.64693C0.162306 6.26381 0.268916 6.62112 0.603615 7.13035C0.860688 7.52201 0.700647 7.39477 5.24832 10.8658C7.5708 12.638 8.51617 13.3282 8.69058 13.3921C9.33049 13.6173 9.99963 13.3626 10.3487 12.7604C10.5281 12.4472 10.5619 11.884 10.4215 11.561C10.2907 11.2625 4.89925 4.08029 4.55019 3.73775C3.91482 3.11603 2.98381 2.86637 2.10144 3.08167ZM3.20686 4.62872C3.75956 4.79515 4.06982 5.52452 3.82257 6.06328C3.35732 7.08149 1.83 6.74378 1.83 5.62275C1.83 4.89822 2.49915 4.41825 3.20686 4.62872Z" fill="#36FC62"/>
<path d="M21.6358 4.78059C21.3885 4.82945 21.0347 5.01065 15.8421 7.70341C12.8119 9.27488 12.676 9.3581 12.4724 9.78411C12.3416 10.0633 12.3171 10.587 12.424 10.871C12.6178 11.3851 13.1514 11.7668 13.6701 11.7668C14.0045 11.7668 22.8675 9.94572 23.2312 9.80371C23.5754 9.66171 24.0409 9.31916 24.2736 9.02039C25.1222 7.94339 25.0445 6.4648 24.0845 5.50054C23.4444 4.84905 22.5522 4.58972 21.6358 4.78059ZM22.7994 6.45488C23.3327 6.76815 23.4587 7.52704 23.0613 8.01159C22.625 8.54526 21.786 8.51574 21.3933 7.95281C21.1993 7.67363 21.1607 7.18425 21.3157 6.88064C21.4271 6.65542 21.6744 6.44012 21.912 6.34697C22.1499 6.25409 22.5474 6.3032 22.7994 6.45488Z" fill="#36FC62"/>
</svg>
