<svg width="40" height="41" viewBox="0 0 40 41" fill="none" xmlns="http://www.w3.org/2000/svg">
<path d="M35.6833 20.2084L20.6833 5.20843C20.0833 4.60843 19.25 4.24176 18.3333 4.24176H6.66668C4.83334 4.24176 3.33334 5.74176 3.33334 7.57509V19.2418C3.33334 20.1584 3.70001 20.9918 4.31668 21.6084L19.3167 36.6084C19.9167 37.2084 20.75 37.5751 21.6667 37.5751C22.5833 37.5751 23.4167 37.2084 24.0167 36.5918L35.6833 24.9251C36.3 24.3251 36.6667 23.4918 36.6667 22.5751C36.6667 21.6584 36.2833 20.8084 35.6833 20.2084ZM9.16668 12.5751C7.78334 12.5751 6.66668 11.4584 6.66668 10.0751C6.66668 8.69176 7.78334 7.57509 9.16668 7.57509C10.55 7.57509 11.6667 8.69176 11.6667 10.0751C11.6667 11.4584 10.55 12.5751 9.16668 12.5751Z" fill="url(#paint0_linear_1_3397)"/>
<defs>
<linearGradient id="paint0_linear_1_3397" x1="3.33335" y1="11.4707" x2="36.6667" y2="31.3502" gradientUnits="userSpaceOnUse">
<stop stop-color="#BC841F"/>
<stop offset="1" stop-color="#F9C66C"/>
</linearGradient>
</defs>
</svg>
