<svg width="40" height="41" viewBox="0 0 40 41" fill="none" xmlns="http://www.w3.org/2000/svg">
<path d="M33.3333 20.9085C33.3333 19.0751 34.8333 17.5751 36.6667 17.5751V10.9085C36.6667 9.07513 35.1667 7.57513 33.3333 7.57513H6.66666C4.83333 7.57513 3.34999 9.07513 3.34999 10.9085V17.5751C5.18333 17.5751 6.66666 19.0751 6.66666 20.9085C6.66666 22.7418 5.18333 24.2418 3.33333 24.2418V30.9085C3.33333 32.7418 4.83333 34.2418 6.66666 34.2418H33.3333C35.1667 34.2418 36.6667 32.7418 36.6667 30.9085V24.2418C34.8333 24.2418 33.3333 22.7418 33.3333 20.9085ZM25.9667 28.9085L20 25.0751L14.0333 28.9085L15.8333 22.0418L10.35 17.5585L17.4167 17.1418L20 10.5751L22.5667 17.1585L29.6333 17.5751L24.15 22.0585L25.9667 28.9085Z" fill="url(#paint0_linear_1_3378)"/>
<defs>
<linearGradient id="paint0_linear_1_3378" x1="3.33333" y1="13.3583" x2="32.38" y2="35.012" gradientUnits="userSpaceOnUse">
<stop stop-color="#BC841F"/>
<stop offset="1" stop-color="#F9C66C"/>
</linearGradient>
</defs>
</svg>
