<svg width="24" height="25" viewBox="0 0 24 25" fill="none" xmlns="http://www.w3.org/2000/svg">
<path opacity="0.3" d="M12 4.9082C9.24 4.9082 7 7.1482 7 9.9082C7 12.7582 9.92 17.1182 12 19.7882C14.11 17.0982 17 12.7882 17 9.9082C17 7.1482 14.76 4.9082 12 4.9082V4.9082ZM12 12.4082C10.62 12.4082 9.5 11.2882 9.5 9.9082C9.5 8.5282 10.62 7.4082 12 7.4082C13.38 7.4082 14.5 8.5282 14.5 9.9082C14.5 11.2882 13.38 12.4082 12 12.4082Z" fill="#36FC62"/>
<path d="M12 2.9082C8.13 2.9082 5 6.0382 5 9.9082C5 15.1582 12 22.9082 12 22.9082C12 22.9082 19 15.1582 19 9.9082C19 6.0382 15.87 2.9082 12 2.9082ZM7 9.9082C7 7.1482 9.24 4.9082 12 4.9082C14.76 4.9082 17 7.1482 17 9.9082C17 12.7882 14.12 17.0982 12 19.7882C9.92 17.1182 7 12.7582 7 9.9082Z" fill="#36FC62"/>
<path d="M12 12.4082C13.3807 12.4082 14.5 11.2889 14.5 9.9082C14.5 8.52749 13.3807 7.4082 12 7.4082C10.6193 7.4082 9.5 8.52749 9.5 9.9082C9.5 11.2889 10.6193 12.4082 12 12.4082Z" fill="#36FC62"/>
</svg>
