<svg width="17" height="16" viewBox="0 0 17 16" fill="none" xmlns="http://www.w3.org/2000/svg">
<path d="M8.5 1.44092C5.70001 1.44092 3.16667 3.58758 3.16667 6.90758C3.16667 9.02758 4.80001 11.5209 8.06 14.3943C8.31334 14.6143 8.69334 14.6143 8.94667 14.3943C12.2 11.5209 13.8333 9.02758 13.8333 6.90758C13.8333 3.58758 11.3 1.44092 8.5 1.44092ZM8.5 8.10758C7.76667 8.10758 7.16667 7.50758 7.16667 6.77425C7.16667 6.04092 7.76667 5.44092 8.5 5.44092C9.23334 5.44092 9.83334 6.04092 9.83334 6.77425C9.83334 7.50758 9.23334 8.10758 8.5 8.10758Z" fill="white" fill-opacity="0.64"/>
</svg>
