<svg width="24" height="25" viewBox="0 0 24 25" fill="none" xmlns="http://www.w3.org/2000/svg">
<path d="M20 4.9082H4C2.9 4.9082 2 5.8082 2 6.9082V18.9082C2 20.0082 2.9 20.9082 4 20.9082H20C21.1 20.9082 22 20.0082 22 18.9082V6.9082C22 5.8082 21.1 4.9082 20 4.9082ZM19.6 9.1582L13.06 13.2482C12.41 13.6582 11.59 13.6582 10.94 13.2482L4.4 9.1582C4.15 8.9982 4 8.7282 4 8.4382C4 7.7682 4.73 7.3682 5.3 7.7182L12 11.9082L18.7 7.7182C19.27 7.3682 20 7.7682 20 8.4382C20 8.7282 19.85 8.9982 19.6 9.1582Z" fill="white" fill-opacity="0.88"/>
</svg>
