<svg width="40" height="41" viewBox="0 0 40 41" fill="none" xmlns="http://www.w3.org/2000/svg">
<path d="M20.7 12.4084C23.0667 12.4084 24.25 13.3084 24.6833 14.7418C24.9 15.4584 25.6167 15.9084 26.3667 15.9084H26.4667C27.6333 15.9084 28.5 14.7251 28.0833 13.6418C27.35 11.7251 25.7333 10.1751 23.2 9.55845V8.40845C23.2 7.02511 22.0833 5.90845 20.7 5.90845C19.3167 5.90845 18.2 7.02511 18.2 8.40845V9.50845C17.55 9.64178 16.95 9.85845 16.3667 10.1084L18.8833 12.6251C19.4167 12.4918 20.0333 12.4084 20.7 12.4084ZM7.81666 8.60845C7.16666 9.25845 7.16666 10.3084 7.81666 10.9584L12.3667 15.5251C12.3667 18.9918 14.9667 20.8918 18.8833 22.0418L24.7333 27.8918C24.1667 28.7084 22.9833 29.4084 20.7 29.4084C17.95 29.4084 16.5333 28.4251 15.9833 27.0251C15.7333 26.3751 15.1667 25.9084 14.4833 25.9084H14.2C13 25.9084 12.1333 27.1418 12.6167 28.2251C13.6 30.4418 15.7667 31.7584 18.2167 32.2918V33.4084C18.2167 34.7918 19.3333 35.9084 20.7167 35.9084C22.1 35.9084 23.2167 34.7918 23.2167 33.4084V32.3251C24.8167 32.0251 26.2667 31.4084 27.3167 30.4584L29.8333 32.9751C30.4833 33.6251 31.5333 33.6251 32.1833 32.9751C32.8333 32.3251 32.8333 31.2751 32.1833 30.6251L10.1667 8.60845C9.51666 7.95845 8.46666 7.95845 7.81666 8.60845Z" fill="url(#paint0_linear_1_3391)"/>
<defs>
<linearGradient id="paint0_linear_1_3391" x1="7.32916" y1="12.4145" x2="34.7301" y2="26.2185" gradientUnits="userSpaceOnUse">
<stop stop-color="#BC841F"/>
<stop offset="1" stop-color="#F9C66C"/>
</linearGradient>
</defs>
</svg>
