<svg width="24" height="25" viewBox="0 0 24 25" fill="none" xmlns="http://www.w3.org/2000/svg">
<path d="M19.2218 16.1763L16.6818 15.8863C16.0718 15.8163 15.4718 16.0263 15.0418 16.4563L13.2018 18.2963C10.3718 16.8563 8.0518 14.5463 6.6118 11.7063L8.4618 9.85627C8.8918 9.42627 9.1018 8.82627 9.0318 8.21627L8.7418 5.69627C8.6218 4.68627 7.7718 3.92627 6.7518 3.92627H5.0218C3.8918 3.92627 2.9518 4.86627 3.0218 5.99627C3.5518 14.5363 10.3818 21.3563 18.9118 21.8863C20.0418 21.9563 20.9818 21.0163 20.9818 19.8863V18.1563C20.9918 17.1463 20.2318 16.2963 19.2218 16.1763Z" fill="white" fill-opacity="0.88"/>
</svg>
