<svg width="20" height="21" viewBox="0 0 20 21" fill="none" xmlns="http://www.w3.org/2000/svg">
<path d="M10 2.57495C5.39169 2.57495 1.66669 6.29995 1.66669 10.9083C1.66669 15.5166 5.39169 19.2416 10 19.2416C14.6084 19.2416 18.3334 15.5166 18.3334 10.9083C18.3334 6.29995 14.6084 2.57495 10 2.57495ZM13.5834 14.4916C13.2584 14.8166 12.7334 14.8166 12.4084 14.4916L10 12.0833L7.59169 14.4916C7.26669 14.8166 6.74169 14.8166 6.41669 14.4916C6.09169 14.1666 6.09169 13.6416 6.41669 13.3166L8.82502 10.9083L6.41669 8.49995C6.09169 8.17495 6.09169 7.64995 6.41669 7.32495C6.74169 6.99995 7.26669 6.99995 7.59169 7.32495L10 9.73328L12.4084 7.32495C12.7334 6.99995 13.2584 6.99995 13.5834 7.32495C13.9084 7.64995 13.9084 8.17495 13.5834 8.49995L11.175 10.9083L13.5834 13.3166C13.9 13.6333 13.9 14.1666 13.5834 14.4916Z" fill="white" fill-opacity="0.64"/>
</svg>
