<svg width="86" height="26" viewBox="0 0 86 26" fill="none" xmlns="http://www.w3.org/2000/svg">
<path d="M5.30921 14.8392C4.27962 14.8392 3.37078 14.6542 2.5827 14.2843C1.79461 13.9143 1.17813 13.3848 0.733246 12.6959C0.288361 12.007 0.065918 11.1778 0.065918 10.2082V9.6724H2.54456V10.2082C2.54456 11.0119 2.79243 11.6179 3.28816 12.0262C3.78389 12.4217 4.45757 12.6194 5.30921 12.6194C6.17356 12.6194 6.81546 12.4472 7.23492 12.1027C7.6671 11.7583 7.88319 11.3181 7.88319 10.7823C7.88319 10.4123 7.77514 10.1125 7.55906 9.8829C7.35568 9.65326 7.05062 9.46828 6.64386 9.32795C6.24982 9.17486 5.7668 9.03452 5.19481 8.90695L4.75628 8.81127C3.84109 8.60714 3.053 8.35199 2.39203 8.04581C1.74377 7.72687 1.24169 7.31225 0.885778 6.80195C0.542581 6.29165 0.370982 5.62826 0.370982 4.81177C0.370982 3.99529 0.561647 3.3 0.942977 2.72591C1.33702 2.13906 1.88359 1.69255 2.5827 1.38637C3.29451 1.06743 4.12708 0.907959 5.08041 0.907959C6.03373 0.907959 6.87902 1.07381 7.61625 1.4055C8.3662 1.72444 8.95091 2.20923 9.37037 2.85987C9.80255 3.49774 10.0186 4.30147 10.0186 5.27104V5.84513H7.53999V5.27104C7.53999 4.76074 7.4383 4.3525 7.23492 4.04632C7.04426 3.72738 6.76462 3.49774 6.396 3.35741C6.02738 3.20432 5.58885 3.12777 5.08041 3.12777C4.31775 3.12777 3.75211 3.27449 3.38349 3.56791C3.02758 3.84858 2.84963 4.23768 2.84963 4.73523C2.84963 5.06692 2.93225 5.34759 3.09749 5.57722C3.27545 5.80686 3.53602 5.99822 3.87922 6.15131C4.22242 6.30441 4.66095 6.43836 5.19481 6.55318L5.63334 6.64886C6.58666 6.85298 7.41288 7.11451 8.11198 7.43345C8.8238 7.75239 9.37673 8.17339 9.77077 8.69645C10.1648 9.21951 10.3618 9.88928 10.3618 10.7058C10.3618 11.5222 10.1521 12.243 9.73264 12.8682C9.32588 13.4805 8.74118 13.9653 7.97852 14.3225C7.22857 14.667 6.3388 14.8392 5.30921 14.8392Z" fill="white"/>
<path d="M11.3236 14.5713L14.8319 1.17587H19.2172L22.7254 14.5713H20.1324L19.4078 11.6243H14.6412L13.9167 14.5713H11.3236ZM15.2323 9.28967H18.8168L17.1961 2.76418H16.8529L15.2323 9.28967Z" fill="white"/>
<path d="M24.323 14.5713V1.17587H29.1087L31.7589 12.849H32.1021V1.17587H34.5808V14.5713H29.7951L27.1448 2.89814H26.8016V14.5713H24.323Z" fill="white"/>
<path d="M36.7147 14.5713V12.3515H38.4688V3.39568H36.7147V1.17587H42.2059C43.9981 1.17587 45.3582 1.63514 46.2861 2.55368C47.2267 3.45947 47.697 4.81177 47.697 6.61059V9.13658C47.697 10.9354 47.2267 12.2941 46.2861 13.2126C45.3582 14.1184 43.9981 14.5713 42.2059 14.5713H36.7147ZM40.9856 12.2749H42.244C43.2609 12.2749 44.0045 12.007 44.4748 11.4712C44.9451 10.9354 45.1803 10.1827 45.1803 9.21313V6.53404C45.1803 5.55171 44.9451 4.79901 44.4748 4.27595C44.0045 3.74014 43.2609 3.47223 42.244 3.47223H40.9856V12.2749Z" fill="white"/>
<path d="M48.9851 14.5713V12.3515H50.7392V3.39568H48.9851V1.17587H55.849C56.6625 1.17587 57.368 1.3162 57.9654 1.59687C58.5755 1.86478 59.0458 2.25388 59.3763 2.76418C59.7195 3.26173 59.8911 3.86133 59.8911 4.563V4.75436C59.8911 5.36673 59.7767 5.87065 59.5479 6.26613C59.3191 6.64886 59.0458 6.94866 58.728 7.16554C58.423 7.36966 58.1306 7.51637 57.851 7.60568V7.95013C58.1306 8.02668 58.4357 8.17339 58.7662 8.39027C59.0967 8.59439 59.3763 8.89419 59.6051 9.28967C59.8466 9.68516 59.9674 10.2018 59.9674 10.8397V11.0311C59.9674 11.771 59.7958 12.4089 59.4526 12.9447C59.1094 13.4678 58.6327 13.8696 58.0226 14.1503C57.4252 14.431 56.7261 14.5713 55.9253 14.5713H48.9851ZM53.256 12.2749H55.6202C56.1668 12.2749 56.6053 12.141 56.9358 11.8731C57.279 11.6052 57.4506 11.2224 57.4506 10.7249V10.5335C57.4506 10.036 57.2853 9.65326 56.9549 9.38536C56.6244 9.11745 56.1795 8.98349 55.6202 8.98349H53.256V12.2749ZM53.256 6.68713H55.5821C56.1032 6.68713 56.529 6.55318 56.8595 6.28527C57.2027 6.01736 57.3743 5.64739 57.3743 5.17536V4.984C57.3743 4.49921 57.2091 4.12924 56.8786 3.87409C56.5481 3.60618 56.1159 3.47223 55.5821 3.47223H53.256V6.68713Z" fill="white"/>
<path d="M67.2138 14.8392C65.536 14.8392 64.2013 14.3799 63.2099 13.4614C62.2184 12.5301 61.7227 11.2033 61.7227 9.48104V6.26613C61.7227 4.54386 62.2184 3.22346 63.2099 2.30491C64.2013 1.37361 65.536 0.907959 67.2138 0.907959C68.8917 0.907959 70.2263 1.37361 71.2178 2.30491C72.2093 3.22346 72.705 4.54386 72.705 6.26613V9.48104C72.705 11.2033 72.2093 12.5301 71.2178 13.4614C70.2263 14.3799 68.8917 14.8392 67.2138 14.8392ZM67.2138 12.5811C68.1544 12.5811 68.8853 12.3068 69.4065 11.7583C69.9276 11.2097 70.1882 10.4761 70.1882 9.55758V6.18959C70.1882 5.27104 69.9276 4.53748 69.4065 3.98891C68.8853 3.44033 68.1544 3.16605 67.2138 3.16605C66.2859 3.16605 65.555 3.44033 65.0212 3.98891C64.5 4.53748 64.2395 5.27104 64.2395 6.18959V9.55758C64.2395 10.4761 64.5 11.2097 65.0212 11.7583C65.555 12.3068 66.2859 12.5811 67.2138 12.5811Z" fill="white"/>
<path d="M73.6081 14.5713L77.5167 7.81618L73.6462 1.17587H76.5062L79.1565 6.01736H79.4997L82.1499 1.17587H85.0099L81.1394 7.81618L85.048 14.5713H82.188L79.4997 9.61499H79.1565L76.4681 14.5713H73.6081Z" fill="white"/>
<path d="M52.5631 25.0187C51.9819 25.0187 51.4688 24.9143 51.0239 24.7054C50.579 24.4966 50.231 24.1977 49.9799 23.8088C49.7287 23.4199 49.6031 22.9518 49.6031 22.4044V22.102H51.0024V22.4044C51.0024 22.8582 51.1423 23.2002 51.4222 23.4307C51.702 23.654 52.0823 23.7656 52.5631 23.7656C53.051 23.7656 53.4134 23.6684 53.6502 23.4739C53.8941 23.2795 54.0161 23.031 54.0161 22.7285C54.0161 22.5197 53.9551 22.3504 53.8331 22.2208C53.7183 22.0912 53.5461 21.9867 53.3165 21.9075C53.0941 21.8211 52.8214 21.7419 52.4985 21.6699L52.2509 21.6158C51.7343 21.5006 51.2894 21.3566 50.9163 21.1837C50.5503 21.0037 50.2669 20.7696 50.066 20.4815C49.8722 20.1935 49.7754 19.819 49.7754 19.3581C49.7754 18.8971 49.883 18.5046 50.0983 18.1806C50.3207 17.8493 50.6293 17.5972 51.0239 17.4244C51.4257 17.2443 51.8957 17.1543 52.4339 17.1543C52.9721 17.1543 53.4493 17.2479 53.8654 17.4352C54.2888 17.6152 54.6189 17.8889 54.8557 18.2562C55.0996 18.6163 55.2216 19.07 55.2216 19.6173V19.9414H53.8224V19.6173C53.8224 19.3293 53.765 19.0988 53.6502 18.926C53.5425 18.7459 53.3847 18.6163 53.1766 18.5371C52.9685 18.4506 52.7209 18.4074 52.4339 18.4074C52.0034 18.4074 51.6841 18.4902 51.476 18.6559C51.2751 18.8143 51.1746 19.034 51.1746 19.3149C51.1746 19.5021 51.2212 19.6605 51.3145 19.7902C51.415 19.9198 51.5621 20.0278 51.7558 20.1143C51.9496 20.2007 52.1971 20.2763 52.4985 20.3411L52.746 20.3951C53.2842 20.5104 53.7506 20.658 54.1453 20.838C54.5471 21.0181 54.8593 21.2557 55.0817 21.551C55.3041 21.8463 55.4154 22.2244 55.4154 22.6853C55.4154 23.1462 55.297 23.5531 55.0602 23.906C54.8306 24.2517 54.5005 24.5254 54.0699 24.727C53.6466 24.9215 53.1443 25.0187 52.5631 25.0187Z" fill="#36FC62"/>
<path d="M59.4026 25.0187C58.4554 25.0187 57.702 24.7594 57.1423 24.2409C56.5826 23.7152 56.3027 22.9662 56.3027 21.9939V20.1791C56.3027 19.2068 56.5826 18.4614 57.1423 17.9429C57.702 17.4172 58.4554 17.1543 59.4026 17.1543C60.3498 17.1543 61.1032 17.4172 61.6629 17.9429C62.2226 18.4614 62.5024 19.2068 62.5024 20.1791V21.9939C62.5024 22.9662 62.2226 23.7152 61.6629 24.2409C61.1032 24.7594 60.3498 25.0187 59.4026 25.0187ZM59.4026 23.744C59.9336 23.744 60.3462 23.5891 60.6404 23.2795C60.9346 22.9698 61.0817 22.5557 61.0817 22.0371V20.1359C61.0817 19.6173 60.9346 19.2032 60.6404 18.8935C60.3462 18.5839 59.9336 18.429 59.4026 18.429C58.8788 18.429 58.4662 18.5839 58.1648 18.8935C57.8706 19.2032 57.7235 19.6173 57.7235 20.1359V22.0371C57.7235 22.5557 57.8706 22.9698 58.1648 23.2795C58.4662 23.5891 58.8788 23.744 59.4026 23.744Z" fill="#36FC62"/>
<path d="M66.6117 25.0187C65.6789 25.0187 64.9398 24.7594 64.3944 24.2409C63.8491 23.7152 63.5764 22.9662 63.5764 21.9939V20.1791C63.5764 19.2068 63.8491 18.4614 64.3944 17.9429C64.9398 17.4172 65.6789 17.1543 66.6117 17.1543C67.5373 17.1543 68.2513 17.41 68.7536 17.9213C69.2631 18.4254 69.5178 19.1204 69.5178 20.0062V20.071H68.1186V19.963C68.1186 19.5165 67.993 19.1492 67.7418 18.8611C67.4979 18.5731 67.1211 18.429 66.6117 18.429C66.1094 18.429 65.7147 18.5839 65.4277 18.8935C65.1407 19.2032 64.9972 19.6245 64.9972 20.1575V22.0155C64.9972 22.5413 65.1407 22.9626 65.4277 23.2795C65.7147 23.5891 66.1094 23.744 66.6117 23.744C67.1211 23.744 67.4979 23.5999 67.7418 23.3119C67.993 23.0166 68.1186 22.6493 68.1186 22.21V22.0155H69.5178V22.1668C69.5178 23.0526 69.2631 23.7512 68.7536 24.2625C68.2513 24.7666 67.5373 25.0187 66.6117 25.0187Z" fill="#36FC62"/>
<path d="M70.6754 24.8675V17.3055H72.0962V24.8675H70.6754Z" fill="#36FC62"/>
<path d="M72.9968 24.8675L74.9772 17.3055H77.4528L79.4333 24.8675H77.9695L77.5604 23.2038H74.8696L74.4606 24.8675H72.9968ZM75.2033 21.8859H77.2268L76.3119 18.2022H76.1182L75.2033 21.8859Z" fill="#36FC62"/>
<path d="M80.3351 24.8675V17.3055H81.7559V23.5711H85.2002V24.8675H80.3351Z" fill="#36FC62"/>
<path d="M25.7346 18.6118C25.6946 18.6038 25.582 18.5798 25.4829 18.5582C25.3733 18.5348 25.3 18.5231 25.2939 18.5293C25.2884 18.5348 25.2317 18.5287 25.1585 18.5145C24.6876 18.4203 24.2481 18.2516 23.8572 18.0159C23.7334 17.9414 23.5648 17.8281 23.4958 17.7739L23.4595 17.745L23.5223 17.6748C23.6017 17.5855 23.6183 17.5554 23.6208 17.4963C23.6294 17.3313 23.4601 17.162 23.2779 17.1546C23.1973 17.1515 23.1653 17.1688 23.0723 17.2691L22.996 17.3516L22.8618 17.2248L21.5094 18.5711L21.5334 18.6038C21.5476 18.6216 21.5765 18.6542 21.5987 18.6764L21.6387 18.7164L21.3685 18.9781C21.2195 19.1221 20.9567 19.3763 20.7843 19.5426C19.4608 20.8169 18.7012 21.5802 18.0635 22.2759C17.3427 23.062 16.7807 23.7644 16.359 24.4065C16.2605 24.5567 16.2624 24.5474 16.3006 24.7001C16.3818 25.0276 16.5708 25.2031 16.8423 25.2037C16.9081 25.2031 16.9395 25.1988 16.9703 25.1827C17.0897 25.1224 17.1488 25.0436 17.4541 24.5474C17.7188 24.1165 17.8653 23.89 18.0764 23.5816C18.6686 22.7172 19.3353 21.8819 20.3005 20.7947C20.5725 20.4869 21.23 19.8381 21.8412 19.2723C21.9145 19.2052 21.9773 19.1498 21.9809 19.1498C21.9896 19.1498 22.0382 19.2157 22.1287 19.3493C22.3651 19.6989 22.5411 20.0572 22.671 20.4506C22.7424 20.6685 22.8236 20.9997 22.8095 21.0139C22.8033 21.02 22.9043 21.499 22.916 21.518C22.9246 21.5328 23.2281 21.4546 23.4595 21.3783C24.0234 21.1899 24.4512 20.9357 24.8181 20.5688C25.2662 20.1206 25.59 19.5136 25.779 18.7669C25.798 18.6924 25.8116 18.6308 25.8097 18.629C25.8079 18.6272 25.7734 18.6198 25.7346 18.6118Z" fill="#36FC62"/>
<path d="M13.8182 18.6855C13.8582 18.6775 13.9708 18.6535 14.07 18.6319C14.1795 18.6085 14.2528 18.5968 14.2589 18.603C14.2645 18.6085 14.3211 18.6024 14.3944 18.5882C14.8653 18.494 15.3048 18.3253 15.6956 18.0896C15.8194 18.0151 15.988 17.9018 16.057 17.8476L16.0933 17.8187L16.0305 17.7485C15.9511 17.6593 15.9345 17.6291 15.932 17.57C15.9234 17.405 16.0927 17.2357 16.2749 17.2283C16.3555 17.2253 16.3875 17.2425 16.4805 17.3428L16.5568 17.4253L16.691 17.2985L18.0434 18.6448L18.0194 18.6775C18.0052 18.6953 17.9763 18.728 17.9541 18.7501L17.9141 18.7901L18.1844 19.0518C18.3333 19.1958 18.5962 19.4501 18.7685 19.6163C20.092 20.8906 20.8516 21.6539 21.4893 22.3496C22.2101 23.1357 22.7721 23.8381 23.1938 24.4802C23.2923 24.6304 23.2904 24.6212 23.2523 24.7738C23.171 25.1013 22.982 25.2768 22.7106 25.2774C22.6447 25.2768 22.6133 25.2725 22.5825 25.2565C22.4631 25.1961 22.404 25.1173 22.0987 24.6212C21.834 24.1902 21.6875 23.9637 21.4764 23.6553C20.8842 22.791 20.2175 21.9556 19.2524 20.8684C18.9803 20.5606 18.3229 19.9118 17.7116 19.346C17.6384 19.2789 17.5756 19.2235 17.5719 19.2235C17.5633 19.2235 17.5146 19.2894 17.4241 19.423C17.1878 19.7726 17.0117 20.1309 16.8818 20.5243C16.8104 20.7422 16.7292 21.0734 16.7433 21.0876C16.7495 21.0937 16.6485 21.5727 16.6368 21.5918C16.6282 21.6065 16.3247 21.5283 16.0933 21.452C15.5294 21.2636 15.1016 21.0094 14.7348 20.6425C14.2866 20.1943 13.9628 19.5873 13.7739 18.8406C13.7548 18.7661 13.7412 18.7046 13.7431 18.7027C13.7449 18.7009 13.7794 18.6935 13.8182 18.6855Z" fill="#36FC62"/>
<path d="M37.5527 17.6027C36.8923 17.7496 36.3949 18.1901 36.1475 18.8451C36.0806 19.0213 36.0719 19.0859 36.0719 19.4385C36.0691 19.7705 36.0807 19.8703 36.133 20.0407C36.3163 20.6194 36.7585 21.0717 37.349 21.2774C37.5525 21.3479 37.6283 21.3597 37.9307 21.3597C38.2217 21.3626 38.3147 21.3508 38.4834 21.2951C38.8122 21.1835 39.0216 21.0543 39.2572 20.8193C39.6442 20.4345 39.8187 20.0116 39.8187 19.4681C39.8187 18.9247 39.6442 18.5046 39.2544 18.111C38.8036 17.6585 38.1606 17.4675 37.5527 17.6027ZM38.2507 18.6807C38.3962 18.854 38.2944 19.0479 38.0325 19.089C37.7503 19.1331 37.5961 19.2947 37.5583 19.5854C37.5262 19.8262 37.311 19.9262 37.1394 19.7793C37.0638 19.7147 37.0579 19.6912 37.0638 19.5237C37.0783 19.0362 37.5233 18.5926 38.0092 18.5897C38.1577 18.5868 38.181 18.5955 38.2507 18.6807Z" fill="#36FC62"/>
<path d="M30.6609 18.9565C30.1664 19.077 29.7358 19.4822 29.5643 19.9875C29.5091 20.1491 29.4944 20.2489 29.4974 20.4957C29.4974 20.8658 29.5614 21.0802 29.7622 21.3857C29.9165 21.6207 29.8205 21.5444 32.5491 23.627C33.9425 24.6903 34.5098 25.1044 34.6144 25.1428C34.9984 25.2779 35.3999 25.1251 35.6093 24.7638C35.717 24.5758 35.7372 24.2379 35.653 24.0441C35.5745 23.865 32.3396 19.5557 32.1302 19.3502C31.749 18.9771 31.1903 18.8273 30.6609 18.9565ZM31.3242 19.8847C31.6558 19.9846 31.842 20.4222 31.6936 20.7455C31.4145 21.3564 30.4981 21.1538 30.4981 20.4812C30.4981 20.0464 30.8996 19.7585 31.3242 19.8847Z" fill="#36FC62"/>
<path d="M42.3815 19.9767C42.2332 20.006 42.0208 20.1147 38.9053 21.7304C37.0871 22.6733 37.0056 22.7232 36.8835 22.9788C36.805 23.1463 36.7903 23.4606 36.8544 23.631C36.9707 23.9394 37.2908 24.1685 37.602 24.1685C37.8027 24.1685 43.1205 23.0758 43.3387 22.9906C43.5453 22.9054 43.8246 22.6998 43.9642 22.5206C44.4733 21.8744 44.4267 20.9872 43.8507 20.4087C43.4667 20.0178 42.9313 19.8622 42.3815 19.9767ZM43.0797 20.9813C43.3997 21.1692 43.4753 21.6246 43.2368 21.9153C42.975 22.2355 42.4716 22.2178 42.236 21.88C42.1196 21.7125 42.0964 21.4189 42.1894 21.2367C42.2563 21.1016 42.4046 20.9724 42.5472 20.9165C42.69 20.8608 42.9285 20.8903 43.0797 20.9813Z" fill="#36FC62"/>
<path d="M10.0421 23.3515L9.47157 19.3514C9.32501 18.3227 8.44047 17.5603 7.39891 17.5603H2.65691C1.61535 17.5603 0.730804 18.3227 0.584253 19.3514L0.0137478 23.3515C-0.1014 24.1557 0.521445 24.8711 1.33271 24.8711C1.68862 24.8711 2.0236 24.7301 2.27483 24.4794L3.45771 23.3045H6.59811L7.77575 24.4794C8.02699 24.7301 8.36719 24.8711 8.71787 24.8711C9.53437 24.8711 10.1572 24.1557 10.0421 23.3515ZM4.50451 20.6935H3.45771V21.7379H2.93431V20.6935H1.88752V20.1713H2.93431V19.1269H3.45771V20.1713H4.50451V20.6935ZM6.59811 20.1713C6.31024 20.1713 6.07471 19.9363 6.07471 19.6491C6.07471 19.3619 6.31024 19.1269 6.59811 19.1269C6.88598 19.1269 7.12151 19.3619 7.12151 19.6491C7.12151 19.9363 6.88598 20.1713 6.59811 20.1713ZM7.6449 21.7379C7.35703 21.7379 7.12151 21.5029 7.12151 21.2157C7.12151 20.9285 7.35703 20.6935 7.6449 20.6935C7.93277 20.6935 8.1683 20.9285 8.1683 21.2157C8.1683 21.5029 7.93277 21.7379 7.6449 21.7379Z" fill="#36FC62"/>
</svg>
