<svg width="142" height="24" viewBox="0 0 142 24" fill="none" xmlns="http://www.w3.org/2000/svg">
<path d="M8.84872 23.2187C7.13274 23.2187 5.61801 22.9104 4.30455 22.2938C2.99108 21.6772 1.96361 20.7948 1.22213 19.6466C0.480661 18.4984 0.109924 17.1163 0.109924 15.5004V14.6074H4.24099V15.5004C4.24099 16.8399 4.6541 17.8499 5.48031 18.5303C6.30653 19.1894 7.42933 19.519 8.84872 19.519C10.2893 19.519 11.3591 19.232 12.0582 18.6579C12.7785 18.0838 13.1387 17.3502 13.1387 16.4572C13.1387 15.8406 12.9586 15.3409 12.5985 14.9582C12.2595 14.5755 11.7511 14.2672 11.0731 14.0333C10.4164 13.7781 9.61138 13.5442 8.65806 13.3316L7.92717 13.1721C6.40186 12.8319 5.08839 12.4067 3.98677 11.8964C2.90634 11.3648 2.06953 10.6738 1.47635 9.8233C0.90436 8.9728 0.618363 7.86714 0.618363 6.50634C0.618363 5.14554 0.936138 3.98673 1.57169 3.02991C2.22842 2.05184 3.13937 1.30765 4.30455 0.797347C5.4909 0.265782 6.87852 0 8.46739 0C10.0563 0 11.4651 0.276413 12.6938 0.82924C13.9437 1.3608 14.9182 2.16878 15.6173 3.25317C16.3376 4.3163 16.6978 5.65584 16.6978 7.27179V8.22861H12.5667V7.27179C12.5667 6.42129 12.3972 5.74089 12.0582 5.23059C11.7405 4.69902 11.2744 4.3163 10.66 4.08241C10.0457 3.82726 9.31479 3.69968 8.46739 3.69968C7.19629 3.69968 6.25356 3.9442 5.6392 4.43324C5.04602 4.90102 4.74943 5.54953 4.74943 6.37877C4.74943 6.93159 4.88713 7.39937 5.16254 7.78209C5.45913 8.16482 5.89342 8.48376 6.46541 8.73891C7.03741 8.99406 7.76829 9.21731 8.65806 9.40868L9.38894 9.56815C10.9778 9.90835 12.3548 10.3442 13.52 10.8758C14.7064 11.4074 15.6279 12.109 16.2846 12.9808C16.9414 13.8525 17.2697 14.9688 17.2697 16.3296C17.2697 17.6904 16.9202 18.8918 16.2211 19.9336C15.5432 20.9542 14.5687 21.7622 13.2976 22.3576C12.0477 22.9317 10.5647 23.2187 8.84872 23.2187Z" fill="white"/>
<path d="M18.8728 22.7722L24.7198 0.446513H32.0286L37.8757 22.7722H33.5539L32.3464 17.8605H24.402L23.1945 22.7722H18.8728ZM25.3871 13.9695H31.3613L28.6602 3.0937H28.0882L25.3871 13.9695Z" fill="white"/>
<path d="M40.5383 22.7722V0.446513H48.5144L52.9315 19.9017H53.5035V0.446513H57.6345V22.7722H49.6584L45.2413 3.31696H44.6693V22.7722H40.5383Z" fill="white"/>
<path d="M61.1911 22.7722V19.0725H64.1147V4.1462H61.1911V0.446513H70.343C73.3301 0.446513 75.5969 1.21197 77.1434 2.74287C78.7111 4.25251 79.4949 6.50634 79.4949 9.50436V13.7143C79.4949 16.7124 78.7111 18.9768 77.1434 20.5077C75.5969 22.0174 73.3301 22.7722 70.343 22.7722H61.1911ZM68.3093 18.9449H70.4066C72.1014 18.9449 73.3407 18.4984 74.1246 17.6054C74.9084 16.7124 75.3003 15.4579 75.3003 13.8419V9.37678C75.3003 7.73957 74.9084 6.48508 74.1246 5.61331C73.3407 4.72028 72.1014 4.27377 70.4066 4.27377H68.3093V18.9449Z" fill="white"/>
<path d="M81.6417 22.7722V19.0725H84.5652V4.1462H81.6417V0.446513H93.0815C94.4374 0.446513 95.6131 0.680402 96.6088 1.14818C97.6257 1.59469 98.4095 2.2432 98.9604 3.0937C99.5324 3.92294 99.8184 4.92228 99.8184 6.09172V6.41066C99.8184 7.43126 99.6277 8.27113 99.2464 8.93027C98.865 9.56815 98.4095 10.0678 97.8799 10.4293C97.3715 10.7695 96.8842 11.014 96.4182 11.1628V11.7369C96.8842 11.8645 97.3927 12.109 97.9435 12.4705C98.4943 12.8107 98.9604 13.3104 99.3417 13.9695C99.7442 14.6286 99.9455 15.4898 99.9455 16.5529V16.8718C99.9455 18.1051 99.6595 19.1682 99.0875 20.0612C98.5155 20.933 97.721 21.6027 96.7042 22.0705C95.7085 22.5383 94.5433 22.7722 93.2086 22.7722H81.6417ZM88.7598 18.9449H92.7002C93.6112 18.9449 94.342 18.7217 94.8929 18.2752C95.4648 17.8286 95.7508 17.1908 95.7508 16.3615V16.0426C95.7508 15.2134 95.4754 14.5755 94.9246 14.129C94.3738 13.6824 93.6323 13.4592 92.7002 13.4592H88.7598V18.9449ZM88.7598 9.63193H92.6366C93.5052 9.63193 94.2149 9.40868 94.7657 8.96216C95.3377 8.51565 95.6237 7.89904 95.6237 7.11232V6.79338C95.6237 5.98541 95.3483 5.36879 94.7975 4.94354C94.2467 4.49703 93.5264 4.27377 92.6366 4.27377H88.7598V9.63193Z" fill="white"/>
<path d="M112.023 23.2187C109.226 23.2187 107.002 22.4532 105.35 20.9223C103.697 19.3702 102.871 17.1589 102.871 14.2884V8.93027C102.871 6.05983 103.697 3.85915 105.35 2.32825C107.002 0.776083 109.226 0 112.023 0C114.819 0 117.044 0.776083 118.696 2.32825C120.349 3.85915 121.175 6.05983 121.175 8.93027V14.2884C121.175 17.1589 120.349 19.3702 118.696 20.9223C117.044 22.4532 114.819 23.2187 112.023 23.2187ZM112.023 19.4552C113.591 19.4552 114.809 18.9981 115.677 18.0838C116.546 17.1695 116.98 15.9469 116.98 14.416V8.80269C116.98 7.27179 116.546 6.04919 115.677 5.1349C114.809 4.22062 113.591 3.76347 112.023 3.76347C110.476 3.76347 109.258 4.22062 108.368 5.1349C107.5 6.04919 107.066 7.27179 107.066 8.80269V14.416C107.066 15.9469 107.5 17.1695 108.368 18.0838C109.258 18.9981 110.476 19.4552 112.023 19.4552Z" fill="white"/>
<path d="M122.68 22.7722L129.194 11.5137L122.744 0.446513H127.51L131.927 8.51565H132.499L136.916 0.446513H141.683L135.232 11.5137L141.746 22.7722H136.98L132.499 14.5117H131.927L127.447 22.7722H122.68Z" fill="white"/>
</svg>
