<svg width="40" height="41" viewBox="0 0 40 41" fill="none" xmlns="http://www.w3.org/2000/svg">
<path d="M25 7.57513C17.6333 7.57513 11.6667 13.5418 11.6667 20.9085C11.6667 28.2751 17.6333 34.2418 25 34.2418C32.3667 34.2418 38.3333 28.2751 38.3333 20.9085C38.3333 13.5418 32.3667 7.57513 25 7.57513ZM25 30.9085C19.4833 30.9085 15 26.4251 15 20.9085C15 15.3918 19.4833 10.9085 25 10.9085C30.5167 10.9085 35 15.3918 35 20.9085C35 26.4251 30.5167 30.9085 25 30.9085ZM5 20.9085C5 16.9251 7.33334 13.4751 10.7167 11.8751C11.2833 11.6085 11.6667 11.0918 11.6667 10.4751V10.1585C11.6667 9.02513 10.4833 8.30847 9.46667 8.7918C4.86667 10.8918 1.66667 15.5251 1.66667 20.9085C1.66667 26.2918 4.86667 30.9251 9.46667 33.0251C10.4833 33.4918 11.6667 32.7918 11.6667 31.6585V31.3585C11.6667 30.7418 11.2833 30.2085 10.7167 29.9418C7.33334 28.3418 5 24.8918 5 20.9085Z" fill="url(#paint0_linear_1_3383)"/>
<defs>
<linearGradient id="paint0_linear_1_3383" x1="1.66667" y1="13.3583" x2="31.3884" y2="37.731" gradientUnits="userSpaceOnUse">
<stop stop-color="#BC841F"/>
<stop offset="1" stop-color="#F9C66C"/>
</linearGradient>
</defs>
</svg>
