<svg width="17" height="13" viewBox="0 0 17 13" fill="none" xmlns="http://www.w3.org/2000/svg">
<path d="M16.7367 10.4059L15.7859 3.73914C15.5417 2.02459 14.0674 0.753906 12.3315 0.753906H4.42818C2.69224 0.753906 1.218 2.02459 0.973752 3.73914L0.0229129 10.4059C-0.169 11.7462 0.869073 12.9385 2.22118 12.9385C2.81437 12.9385 3.37266 12.7035 3.79138 12.2858L5.76284 10.3275H10.9968L12.9596 12.2858C13.3783 12.7035 13.9453 12.9385 14.5298 12.9385C15.8906 12.9385 16.9287 11.7462 16.7367 10.4059ZM7.5075 5.97589H5.76284V7.71654H4.89051V5.97589H3.14585V5.10556H4.89051V3.3649H5.76284V5.10556H7.5075V5.97589ZM10.9968 5.10556C10.517 5.10556 10.1245 4.71391 10.1245 4.23523C10.1245 3.75654 10.517 3.3649 10.9968 3.3649C11.4766 3.3649 11.8691 3.75654 11.8691 4.23523C11.8691 4.71391 11.4766 5.10556 10.9968 5.10556ZM12.7415 7.71654C12.2617 7.71654 11.8691 7.3249 11.8691 6.84621C11.8691 6.36753 12.2617 5.97589 12.7415 5.97589C13.2213 5.97589 13.6138 6.36753 13.6138 6.84621C13.6138 7.3249 13.2213 7.71654 12.7415 7.71654Z" fill="#36FC62"/>
</svg>
