<svg width="60" height="15" viewBox="0 0 60 15" fill="none" xmlns="http://www.w3.org/2000/svg">
<path d="M5.60495 14.0924C4.63625 14.0924 3.78116 13.9184 3.03968 13.5703C2.29821 13.2222 1.71818 12.7241 1.29961 12.0759C0.881034 11.4278 0.671753 10.6476 0.671753 9.73533V9.2312H3.00381V9.73533C3.00381 10.4915 3.23701 11.0617 3.70342 11.4458C4.16983 11.8179 4.80368 12.0039 5.60495 12.0039C6.41817 12.0039 7.02212 11.8419 7.41677 11.5178C7.82339 11.1937 8.0267 10.7796 8.0267 10.2755C8.0267 9.92738 7.92504 9.64531 7.72174 9.42925C7.53039 9.2132 7.24336 9.03915 6.86066 8.90712C6.48993 8.76308 6.03547 8.63105 5.49731 8.51102L5.08472 8.421C4.22366 8.22895 3.48218 7.98889 2.8603 7.70081C2.25038 7.40074 1.77798 7.01064 1.44312 6.53052C1.12022 6.05039 0.958777 5.42624 0.958777 4.65804C0.958777 3.88985 1.13816 3.23568 1.49694 2.69554C1.86768 2.1434 2.38192 1.7233 3.03968 1.43522C3.7094 1.13515 4.49274 0.985107 5.38968 0.985107C6.28663 0.985107 7.08192 1.14115 7.77555 1.45323C8.48115 1.7533 9.03127 2.20942 9.42593 2.82157C9.83254 3.42173 10.0359 4.17792 10.0359 5.09015V5.63029H7.7038V5.09015C7.7038 4.61003 7.60812 4.22593 7.41677 3.93786C7.23739 3.63778 6.97427 3.42173 6.62746 3.28969C6.28064 3.14566 5.86805 3.07364 5.38968 3.07364C4.67213 3.07364 4.13993 3.21167 3.79312 3.48774C3.45826 3.75181 3.29083 4.1179 3.29083 4.58602C3.29083 4.8981 3.36857 5.16217 3.52404 5.37822C3.69147 5.59428 3.93663 5.77432 4.25953 5.91836C4.58243 6.0624 4.99502 6.18843 5.49731 6.29646L5.90991 6.38648C6.80685 6.57853 7.5842 6.82459 8.24196 7.12467C8.91168 7.42474 9.43191 7.82084 9.80264 8.31297C10.1734 8.80509 10.3587 9.43526 10.3587 10.2035C10.3587 10.9716 10.1614 11.6498 9.76677 12.238C9.38407 12.8141 8.83394 13.2702 8.11638 13.6063C7.41079 13.9304 6.57364 14.0924 5.60495 14.0924Z" fill="#36FC62"/>
<path d="M17.0041 14.0924C15.4255 14.0924 14.1698 13.6603 13.237 12.7961C12.3041 11.9199 11.8377 10.6716 11.8377 9.05116V6.02639C11.8377 4.40598 12.3041 3.16366 13.237 2.29944C14.1698 1.42322 15.4255 0.985107 17.0041 0.985107C18.5827 0.985107 19.8385 1.42322 20.7713 2.29944C21.7041 3.16366 22.1705 4.40598 22.1705 6.02639V9.05116C22.1705 10.6716 21.7041 11.9199 20.7713 12.7961C19.8385 13.6603 18.5827 14.0924 17.0041 14.0924ZM17.0041 11.9679C17.8891 11.9679 18.5768 11.7098 19.0671 11.1937C19.5574 10.6776 19.8026 9.9874 19.8026 9.12318V5.95437C19.8026 5.09015 19.5574 4.39997 19.0671 3.88384C18.5768 3.36771 17.8891 3.10965 17.0041 3.10965C16.1311 3.10965 15.4434 3.36771 14.9411 3.88384C14.4508 4.39997 14.2057 5.09015 14.2057 5.95437V9.12318C14.2057 9.9874 14.4508 10.6776 14.9411 11.1937C15.4434 11.7098 16.1311 11.9679 17.0041 11.9679Z" fill="#36FC62"/>
<path d="M29.0192 14.0924C27.4645 14.0924 26.2327 13.6603 25.3238 12.7961C24.4149 11.9199 23.9605 10.6716 23.9605 9.05116V6.02639C23.9605 4.40598 24.4149 3.16366 25.3238 2.29944C26.2327 1.42322 27.4645 0.985107 29.0192 0.985107C30.562 0.985107 31.7519 1.41122 32.5891 2.26343C33.4382 3.10365 33.8627 4.26194 33.8627 5.73832V5.84634H31.5307V5.6663C31.5307 4.92211 31.3214 4.30995 30.9028 3.82983C30.4962 3.34971 29.8683 3.10965 29.0192 3.10965C28.1821 3.10965 27.5243 3.36771 27.046 3.88384C26.5676 4.39997 26.3284 5.10215 26.3284 5.99038V9.08717C26.3284 9.96339 26.5676 10.6656 27.046 11.1937C27.5243 11.7098 28.1821 11.9679 29.0192 11.9679C29.8683 11.9679 30.4962 11.7278 30.9028 11.2477C31.3214 10.7556 31.5307 10.1434 31.5307 9.41125V9.08717H33.8627V9.33923C33.8627 10.8156 33.4382 11.9799 32.5891 12.8321C31.7519 13.6723 30.562 14.0924 29.0192 14.0924Z" fill="#36FC62"/>
<path d="M35.7922 13.8404V1.23717H38.1601V13.8404H35.7922Z" fill="#36FC62"/>
<path d="M39.6611 13.8404L42.9618 1.23717H47.0878L50.3885 13.8404H47.9488L47.2671 11.0677H42.7824L42.1007 13.8404H39.6611ZM43.3385 8.87111H46.711L45.1862 2.73155H44.8633L43.3385 8.87111Z" fill="#36FC62"/>
<path d="M51.8916 13.8404V1.23717H54.2595V11.6798H60V13.8404H51.8916Z" fill="#36FC62"/>
</svg>
