<svg width="40" height="27" viewBox="0 0 40 27" fill="none" xmlns="http://www.w3.org/2000/svg">
<path d="M39.7505 4.87522C39.6179 4.849 39.2445 4.77033 38.9159 4.69972C38.5527 4.62307 38.3099 4.58474 38.2895 4.60491C38.2712 4.62307 38.0834 4.60289 37.8406 4.5565C36.2797 4.24786 34.8227 3.69513 33.527 2.92252C33.1169 2.67843 32.5578 2.30725 32.3293 2.12974L32.2089 2.03492L32.417 1.80496C32.6802 1.51245 32.7353 1.41361 32.7435 1.21995C32.7721 0.679327 32.2109 0.124581 31.607 0.100374C31.3397 0.0902874 31.2335 0.146771 30.9254 0.475584L30.6724 0.745896L30.2276 0.330341L25.7447 4.74209L25.8242 4.849C25.8712 4.9075 25.9671 5.01442 26.0405 5.08704L26.1732 5.21816L25.2774 6.07549C24.7836 6.54753 23.9123 7.38066 23.341 7.92532C18.954 12.101 16.436 14.6024 14.3221 16.8819C11.9327 19.458 10.0697 21.7597 8.67198 23.8637C8.34551 24.3559 8.35163 24.3256 8.47814 24.8259C8.74748 25.8991 9.37391 26.474 10.2738 26.476C10.4921 26.474 10.5962 26.4599 10.6982 26.4074C11.094 26.2097 11.2899 25.9515 12.302 24.3256C13.1794 22.9135 13.665 22.1712 14.3649 21.1606C16.3279 18.3283 18.5377 15.5909 21.7372 12.0284C22.6391 11.0198 24.8183 8.8936 26.8445 7.03974C27.0873 6.81986 27.2954 6.63831 27.3077 6.63831C27.3362 6.63831 27.4974 6.85415 27.7974 7.2919C28.5809 8.4377 29.1645 9.61175 29.595 10.9008C29.8317 11.6149 30.1011 12.7002 30.0542 12.7466C30.0337 12.7667 30.3684 14.3362 30.4072 14.3987C30.4357 14.4471 31.4417 14.1909 32.2089 13.9408C34.078 13.3235 35.4961 12.4904 36.7122 11.2881C38.1977 9.81952 39.271 7.83051 39.8974 5.38357C39.9607 5.13948 40.0056 4.93776 39.9994 4.93171C39.9933 4.92566 39.8791 4.90145 39.7505 4.87522Z" fill="url(#paint0_linear_1_3371)"/>
<path d="M0.249496 5.11677C0.382128 5.09054 0.755535 5.01187 1.08405 4.94127C1.44726 4.86461 1.69007 4.82628 1.71048 4.84645C1.72884 4.86461 1.91657 4.84444 2.15938 4.79804C3.72035 4.4894 5.17725 3.93667 6.47295 3.16406C6.88309 2.91997 7.44218 2.5488 7.67071 2.37128L7.7911 2.27647L7.58297 2.0465C7.31975 1.754 7.26466 1.65515 7.2565 1.4615C7.22793 0.920871 7.78906 0.366124 8.39304 0.341917C8.66035 0.331831 8.76645 0.388314 9.07456 0.717127L9.32758 0.98744L9.77241 0.571885L14.2553 4.98363L14.1758 5.09054C14.1288 5.14904 14.0329 5.25596 13.9595 5.32858L13.8268 5.4597L14.7226 6.31704C15.2164 6.78907 16.0877 7.6222 16.659 8.16686C21.046 12.3426 23.564 14.844 25.6779 17.1235C28.0673 19.6995 29.9303 22.0012 31.328 24.1052C31.6545 24.5974 31.6484 24.5672 31.5219 25.0675C31.2525 26.1406 30.6261 26.7156 29.7262 26.7176C29.5079 26.7156 29.4038 26.7014 29.3018 26.649C28.906 26.4513 28.7101 26.1931 27.698 24.5672C26.8206 23.1551 26.335 22.4127 25.6351 21.4021C23.6721 18.5699 21.4623 15.8324 18.2628 12.27C17.3609 11.2613 15.1817 9.13515 13.1555 7.28129C12.9127 7.06141 12.7046 6.87985 12.6923 6.87985C12.6638 6.87985 12.5026 7.0957 12.2026 7.53344C11.4191 8.67925 10.8355 9.85329 10.405 11.1423C10.1683 11.8564 9.89892 12.9417 9.94585 12.9881C9.96625 13.0083 9.63161 14.5777 9.59284 14.6402C9.56428 14.6887 8.55832 14.4325 7.7911 14.1823C5.92202 13.565 4.50389 12.7319 3.28777 11.5296C1.8023 10.0611 0.729009 8.07205 0.102582 5.62512C0.0393273 5.38103 -0.00556324 5.1793 0.000558192 5.17325C0.00667963 5.1672 0.120946 5.14299 0.249496 5.11677Z" fill="url(#paint1_linear_1_3371)"/>
<defs>
<linearGradient id="paint0_linear_1_3371" x1="3.49293e-06" y1="5.87194" x2="30.0729" y2="32.8235" gradientUnits="userSpaceOnUse">
<stop stop-color="#BC841F"/>
<stop offset="1" stop-color="#F9C66C"/>
</linearGradient>
<linearGradient id="paint1_linear_1_3371" x1="3.49293e-06" y1="5.87194" x2="30.0729" y2="32.8235" gradientUnits="userSpaceOnUse">
<stop stop-color="#BC841F"/>
<stop offset="1" stop-color="#F9C66C"/>
</linearGradient>
</defs>
</svg>
